<?xml version="1.0" encoding="UTF-8" standalone="no"?>
<svg
   xmlns:dc="http://purl.org/dc/elements/1.1/"
   xmlns:cc="http://creativecommons.org/ns#"
   xmlns:rdf="http://www.w3.org/1999/02/22-rdf-syntax-ns#"
   xmlns:svg="http://www.w3.org/2000/svg"
   xmlns="http://www.w3.org/2000/svg"
   xmlns:sodipodi="http://sodipodi.sourceforge.net/DTD/sodipodi-0.dtd"
   xmlns:inkscape="http://www.inkscape.org/namespaces/inkscape"
   width="500"
   height="300"
   viewBox="0 0 132.29166 79.375"
   version="1.1"
   id="svg8"
   inkscape:version="1.0.1 (3bc2e813f5, 2020-09-07)"
   sodipodi:docname="DAC_logo.svg">
  <defs
     id="defs2" />
  <sodipodi:namedview
     id="base"
     pagecolor="#ffffff"
     bordercolor="#666666"
     borderopacity="1.0"
     inkscape:pageopacity="0.0"
     inkscape:pageshadow="2"
     inkscape:zoom="1"
     inkscape:cx="152.24934"
     inkscape:cy="164.18027"
     inkscape:document-units="px"
     inkscape:current-layer="g37"
     showgrid="false"
     showguides="true"
     units="mm"
     inkscape:window-width="1366"
     inkscape:window-height="715"
     inkscape:window-x="-8"
     inkscape:window-y="-8"
     inkscape:window-maximized="1"
     inkscape:document-rotation="0" />
  <metadata
     id="metadata5">
    <rdf:RDF>
      <cc:Work
         rdf:about="">
        <dc:format>image/svg+xml</dc:format>
        <dc:type
           rdf:resource="http://purl.org/dc/dcmitype/StillImage" />
        <dc:title />
      </cc:Work>
    </rdf:RDF>
  </metadata>
  <g
     inkscape:label="Layer 1"
     inkscape:groupmode="layer"
     id="layer1"
     transform="translate(0,-217.62498)">
    <g
       id="g21"
       transform="translate(82.39881,-58.208333)" />
    <g
       id="g68"
       transform="matrix(0.38302276,0,0,0.44064581,108.47491,238.21117)">
      <g
         transform="translate(-157.99405,-76.35119)"
         id="g48" />
    </g>
    <g
       id="g37"
       transform="translate(-8.8858482,4.4525212)">
      <path
         style="fill:#212129;stroke-width:0.484372"
         d="m 57.146269,278.84463 c 0.299643,-0.82602 2.345267,-4.97344 4.545811,-9.21649 l 4.000989,-7.71466 -1.99363,-1.82195 c -1.096492,-1.00209 -2.056736,-2.32261 -2.133874,-2.93452 -0.07715,-0.61192 -0.190498,-1.58659 -0.251916,-2.16596 -0.103342,-0.9748 -0.885461,-1.08887 -10.482338,-1.52869 -10.134315,-0.46445 -10.374417,-0.50286 -10.534429,-1.68477 -0.09007,-0.6652 -0.115534,-1.30743 -0.05662,-1.42718 0.05898,-0.11976 4.700148,-0.45696 10.313829,-0.74933 5.613689,-0.29241 10.275731,-0.53812 10.360107,-0.54609 0.08434,-0.007 0.331907,-1.0906 0.550077,-2.4059 0.375821,-2.26575 0.494298,-2.47388 2.254017,-3.95968 1.691386,-1.42817 1.819036,-1.64 1.428847,-2.37111 -0.235661,-0.44158 -2.376909,-4.60919 -4.758338,-9.26137 -4.053164,-7.91798 -4.264756,-8.49353 -3.310942,-9.00628 0.560409,-0.30124 1.206343,-0.43223 1.435408,-0.29106 0.228926,0.14133 2.861337,3.99313 5.849487,8.55991 l 5.433005,8.30326 2.308553,-0.86168 c 1.93172,-0.721 2.679214,-0.7135 4.579337,0.046 l 2.270767,0.90768 4.506089,-7.18212 c 6.227996,-9.92664 6.792364,-10.6176 8.073966,-9.88501 0.681188,0.38942 0.897628,0.84098 0.644628,1.34487 -0.20951,0.41727 -2.324517,4.66619 -4.700055,9.44208 l -4.319139,8.68344 1.925423,1.49778 c 1.528453,1.18897 1.999236,1.91948 2.283507,3.54318 0.196947,1.12499 0.280812,2.19239 0.186384,2.37202 -0.09447,0.1796 4.38821,0.54523 9.961395,0.81244 5.573166,0.26721 10.373926,0.62353 10.668296,0.79182 0.2944,0.16825 0.4307,0.79197 0.30287,1.38594 -0.27795,1.29146 0.18813,1.21706 -11.085516,1.77041 -4.735785,0.23243 -8.857824,0.47531 -9.160091,0.53966 -0.302762,0.0644 -0.713846,1.17198 -0.915388,2.46597 -0.349518,2.24427 -0.449749,2.41773 -2.249897,3.89341 -1.794949,1.47145 -1.861092,1.58541 -1.398308,2.40877 0.267172,0.47532 2.434193,4.67056 4.815625,9.32274 4.053154,7.91797 4.264744,8.4935 3.310934,9.00625 -0.560396,0.30126 -1.207109,0.43361 -1.437119,0.29407 -0.229826,-0.13987 -2.881159,-4.03541 -5.891456,-8.6575 l -5.473287,-8.40383 -2.37356,0.84911 c -1.9631,0.70226 -2.749075,0.69588 -4.544866,-0.0368 l -2.171286,-0.88598 -4.283511,6.83562 c -6.141032,9.79984 -6.844377,10.67199 -8.050487,9.98255 -0.774608,-0.44282 -0.864736,-0.87149 -0.433245,-2.06093 z"
         id="path39"
         sodipodi:nodetypes="cscssssscscscssscscsscssssccscssssscsssscscsscsscc" />
      <g
         id="g60"
         transform="matrix(1.8307024,0,0,1.8307024,-23.156299,-221.03418)"
         style="stroke:#ffffff">
        <path
           style="fill:#89a02c;stroke:#ffffff;stroke-width:0.195739"
           d="m 32.314679,261.9713 c -1.341361,-1.20293 -1.949251,-3.30841 -1.481862,-5.13252 0.26746,-1.04384 1.191805,-2.29466 2.166458,-2.93165 1.707473,-0.9251 1.343352,0.68007 0.397298,1.03267 -0.877188,0.67274 -1.591738,2.08835 -1.618538,3.20652 -0.02843,1.18563 0.596102,2.51045 1.492005,3.16506 0.916674,0.43329 1.371312,1.74657 0.0765,1.41207 -0.306194,-0.17935 -0.770527,-0.51784 -1.031842,-0.75219 z m 27.751007,14.22954 c 1.21787,0.66375 3.070965,0.49828 4.324196,-0.38615 1.027255,-0.72493 1.507682,-1.46526 1.709606,-2.63444 0.08233,-1.10962 1.217688,-1.59729 1.10859,-0.2831 -0.285065,3.65979 -4.317297,5.92898 -7.491582,4.21599 -1.224785,-0.5388 -0.251101,-1.21965 0.34919,-0.9123 z m 12.921683,-15.12822 c 0.907794,-0.69624 1.595088,-1.96751 1.626333,-3.10071 0.03293,-1.19429 -0.759231,-2.82977 -1.589886,-3.28248 -1.004791,-0.36474 -0.821085,-1.60413 0.373199,-1.06475 3.101421,2.12526 3.066791,6.4949 -0.06756,8.52475 -1.27788,0.31992 -0.84498,-0.72233 -0.342086,-1.07681 z M 39.190561,243.07358 c 0.301762,-2.85336 2.93298,-4.99149 5.756363,-4.67765 1.07856,0.11988 2.395694,0.71114 2.471955,0.99556 0.275355,1.02696 -0.775195,0.74828 -1.278916,0.42447 -0.592762,-0.38105 -1.894773,-0.4418 -2.775928,-0.22754 -1.563633,0.38026 -2.949471,1.8764 -3.09456,3.34086 0.258352,1.17751 -1.137391,1.82131 -1.078907,0.1443 z m 26.474765,-0.58608 c -0.256883,-1.2355 -0.838944,-2.01183 -1.970958,-2.62879 -1.096279,-0.59749 -2.553259,-0.73202 -3.482194,-0.32156 -0.478224,0.37849 -2.206091,0.30475 -0.799154,-0.82417 1.245146,-0.56791 3.024474,-0.61368 4.275076,-0.11001 1.815339,0.73116 3.29379,2.83006 3.236138,4.59424 -0.412953,1.36566 -1.162497,-0.14726 -1.258908,-0.70975 z"
           id="path41"
           sodipodi:nodetypes="csccscccccscccccsccccsssscccsssccsccs" />
        <path
           style="fill:#89a02c;stroke:#ffffff;stroke-width:0.195739"
           d="m 45.688257,277.4843 c -1.75761,0.39636 -3.825906,-0.32802 -5.041883,-1.76581 -0.695839,-0.82277 -1.179801,-2.30085 -1.134305,-3.46431 0.235241,-1.92768 1.332598,-0.70091 1.071875,0.27447 0.04011,1.10473 0.779937,2.5073 1.675791,3.17697 0.949894,0.71009 2.391543,0.96862 3.444152,0.61766 0.884252,-0.49611 2.218064,-0.1058 1.19525,0.75576 -0.323581,0.14566 -0.868493,0.32801 -1.210901,0.40522 z"
           id="path41-7"
           sodipodi:nodetypes="csccscccc" />
      </g>
    </g>
  </g>
</svg>
