<?xml version="1.0" encoding="UTF-8" standalone="no"?>
<svg
   xmlns:dc="http://purl.org/dc/elements/1.1/"
   xmlns:cc="http://creativecommons.org/ns#"
   xmlns:rdf="http://www.w3.org/1999/02/22-rdf-syntax-ns#"
   xmlns:svg="http://www.w3.org/2000/svg"
   xmlns="http://www.w3.org/2000/svg"
   xmlns:sodipodi="http://sodipodi.sourceforge.net/DTD/sodipodi-0.dtd"
   xmlns:inkscape="http://www.inkscape.org/namespaces/inkscape"
   width="300"
   height="300"
   viewBox="0 0 79.375002 79.374997"
   version="1.1"
   id="svg8"
   inkscape:version="1.0.1 (3bc2e813f5, 2020-09-07)"
   sodipodi:docname="DAC_Logo.svg"
   inkscape:export-filename="C:\Users\Leandro\Pictures\Ink\DAC\DAC_Business_Front.png"
   inkscape:export-xdpi="88.4048"
   inkscape:export-ydpi="88.4048">
  <defs
     id="defs2">
    <rect
       x="11.103456"
       y="75.479787"
       width="71.332402"
       height="19.031964"
       id="rect927" />
    <rect
       x="46.113094"
       y="49.514881"
       width="50.648808"
       height="24.946428"
       id="rect855" />
    <rect
       x="39.536308"
       y="8.4099693"
       width="84.43988"
       height="35.057293"
       id="rect849" />
    <rect
       x="46.113094"
       y="49.514881"
       width="115.66071"
       height="23.434523"
       id="rect855-0" />
    <rect
       x="46.113094"
       y="49.514881"
       width="50.648808"
       height="24.946428"
       id="rect897" />
    <rect
       x="39.536308"
       y="8.4099693"
       width="84.43988"
       height="35.057293"
       id="rect849-9" />
    <rect
       x="39.536308"
       y="8.4099693"
       width="84.43988"
       height="35.057293"
       id="rect997" />
    <rect
       x="46.113094"
       y="49.514881"
       width="99.596725"
       height="29.671129"
       id="rect855-0-5" />
    <rect
       x="46.113094"
       y="49.514881"
       width="115.66071"
       height="23.434523"
       id="rect873" />
  </defs>
  <sodipodi:namedview
     id="base"
     pagecolor="#ffffff"
     bordercolor="#666666"
     borderopacity="1.0"
     inkscape:pageopacity="0.0"
     inkscape:pageshadow="2"
     inkscape:zoom="1.4"
     inkscape:cx="224.90188"
     inkscape:cy="225.82372"
     inkscape:document-units="mm"
     inkscape:current-layer="g876"
     inkscape:document-rotation="0"
     showgrid="false"
     inkscape:showpageshadow="false"
     inkscape:window-width="1366"
     inkscape:window-height="715"
     inkscape:window-x="-8"
     inkscape:window-y="-8"
     inkscape:window-maximized="1"
     units="px" />
  <metadata
     id="metadata5">
    <rdf:RDF>
      <cc:Work
         rdf:about="">
        <dc:format>image/svg+xml</dc:format>
        <dc:type
           rdf:resource="http://purl.org/dc/dcmitype/StillImage" />
        <dc:title />
      </cc:Work>
    </rdf:RDF>
  </metadata>
  <g
     inkscape:label="Layer 1"
     inkscape:groupmode="layer"
     id="layer1">
    <g
       id="g876"
       transform="matrix(1.2611146,0,0,1.2611146,9.053817,-9.0100901)"
       inkscape:export-filename="C:\Users\Leandro\Pictures\Ink\DAC\DAC_Logo_Color-Null.png"
       inkscape:export-xdpi="88.4048"
       inkscape:export-ydpi="88.4048">
      <g
         id="g897"
         transform="matrix(1.491509,0,0,1.491509,-14.689898,-4.5090212)">
        <path
           style="fill:#b2e43c;stroke-width:0.140801;fill-opacity:1"
           d="m 23.906603,32.060611 c -2.690553,-0.335539 -6.602468,-1.320693 -8.170144,-2.057522 -0.152325,-0.07159 -0.775471,-0.361589 -1.38477,-0.644434 -0.807395,-0.374801 -1.051487,-0.546578 -0.900101,-0.633436 0.281253,-0.161367 3.024935,-0.959003 4.223549,-1.227858 4.479186,-1.004706 9.662955,-1.133805 13.951359,-0.347453 2.355607,0.431941 2.735121,0.477188 2.735121,0.326087 0,-0.180146 -2.797113,-1.116841 -4.292788,-1.437566 -1.456106,-0.312239 -6.707892,-0.349656 -8.654813,-0.06166 -2.052002,0.303539 -5.681121,1.10609 -7.893189,1.745518 -1.142435,0.330236 -2.201785,0.630634 -2.354109,0.66755 -0.152325,0.03692 -0.401584,0.122733 -0.553908,0.190702 -0.152325,0.06797 -1.2428314,0.458498 -2.4233479,0.867842 -1.1805165,0.409344 -2.2398657,0.777427 -2.3541092,0.817961 -0.3873457,0.137434 0.4725662,-0.719756 1.5812988,-1.576292 3.0663363,-2.368854 6.7024493,-3.924406 11.4355403,-4.892194 4.571202,-0.934688 11.177595,-0.826271 15.578663,0.255656 1.614182,0.39682 2.021248,0.520143 3.450554,1.045369 2.99358,1.100046 5.602587,2.647408 7.316438,4.339268 l 0.865077,0.853979 -0.969339,-0.375999 c -3.1468,-1.220615 -7.698323,-2.695533 -7.998769,-2.591996 -0.08555,0.02948 0.121316,0.167711 0.459691,0.307177 1.120615,0.46188 3.315529,1.583843 3.315529,1.694782 0,0.226021 -3.682382,0.0013 -7.477758,-0.45647 -3.456503,-0.416837 -4.217642,-0.465861 -6.026056,-0.388131 -1.697441,0.07296 -3.49836,0.317149 -3.363936,0.456123 0.02505,0.0259 1.447013,0.119556 3.159907,0.208119 3.921354,0.202745 7.444549,0.771959 7.938422,1.282548 0.264198,0.273141 -3.504793,1.265661 -5.997492,1.579367 -1.094764,0.137777 -4.257934,0.170017 -5.19652,0.05297 z m 3.078229,-1.423424 c -0.04602,-0.04757 -0.165453,-0.05266 -0.265415,-0.0113 -0.110467,0.0457 -0.07766,0.07963 0.08366,0.08649 0.145977,0.0062 0.227766,-0.02762 0.181752,-0.07519 z m -8.370573,-2.204128 c 0.112558,0 0.113273,-0.04298 0.0026,-0.157386 -0.18212,-0.188285 -0.775065,-0.0271 -0.652784,0.177453 0.04689,0.07844 0.177522,0.106013 0.29029,0.06127 0.112765,-0.04474 0.274711,-0.08134 0.359877,-0.08134 z m -6.13201,-1.861131 c 0,-0.07874 -0.06231,-0.143164 -0.138477,-0.143164 -0.07616,0 -0.138477,0.06442 -0.138477,0.143164 0,0.07874 0.06231,0.143164 0.138477,0.143164 0.07616,0 0.138477,-0.06442 0.138477,-0.143164 z m 25.165312,-0.802315 c -0.04602,-0.04757 -0.165452,-0.05266 -0.265414,-0.0113 -0.110468,0.0457 -0.07766,0.07962 0.08366,0.08649 0.145977,0.0062 0.227766,-0.02762 0.181751,-0.07519 z m -5.224622,-0.620875 c 0,-0.249494 -0.23429,-0.287063 -0.498889,-0.08 -0.248943,0.194813 -0.242743,0.205845 0.118077,0.21016 0.209446,0.0025 0.380812,-0.05607 0.380812,-0.130162 z m -8.346125,-1.38342 c -0.04602,-0.04757 -0.165452,-0.05266 -0.265414,-0.0113 -0.110468,0.0457 -0.07766,0.07962 0.08366,0.08649 0.145977,0.0062 0.227766,-0.02762 0.181751,-0.07519 z m 1.208603,-1.883774 c -0.323449,-0.0275 -0.732772,-0.190133 -0.969339,-0.385148 -0.703374,-0.443126 -0.409475,-1.336021 -0.409475,-2.081489 0,-1.733336 0.0024,-1.746033 0.388533,-2.089448 0.339788,-0.302165 0.525735,-0.345514 1.482112,-0.345514 1.847358,0 2.076312,0.274791 2.075431,2.490941 -5.53e-4,1.449032 -0.270782,2.168535 -0.860667,2.291778 -0.614441,0.128372 -1.153341,0.165911 -1.706595,0.11888 z m 1.419468,-0.517536 c -0.07095,-0.220056 -1.512586,-0.211358 -1.583813,0.0095 -0.03546,0.10999 0.156575,0.186025 0.542369,0.214746 0.756411,0.05631 1.107536,-0.01931 1.041444,-0.2243 z"
           id="path888"
           sodipodi:nodetypes="ssssssssssssssssssscsssscssssssssssssscssssssssssssssssssssscssscccscsscsscc" />
        <path
           style="fill:#3d93cc;stroke-width:0.140801"
           d="m 10.713612,35.77021 0.03768,-2.684323 1.246293,0.01125 c 2.458616,0.0222 3.392687,0.750821 3.392687,2.64647 0,1.200763 -0.372896,1.876238 -1.299232,2.353474 -0.598298,0.308237 -0.881159,0.357451 -2.054461,0.357451 h -1.360637 z m 2.873488,1.040713 c 0.382316,-0.357702 0.472284,-1.130574 0.200528,-1.72264 -0.235077,-0.512156 -0.705101,-0.735303 -1.388712,-0.659301 -0.17186,0.01911 -0.373576,2.172418 -0.237778,2.538279 0.109394,0.294726 1.054622,0.191094 1.425962,-0.156338 z m 2.582244,1.424264 c -0.04768,-0.12846 -0.08669,-1.316606 -0.08669,-2.640324 0,-1.795963 0.04393,-2.422941 0.173096,-2.470515 0.0952,-0.03506 0.765085,-0.0555 1.488628,-0.04542 0.954112,0.0133 1.438531,0.08627 1.763237,0.265606 0.885419,0.489024 1.142271,1.770766 0.537101,2.680252 -0.311415,0.468014 -0.318357,0.522109 -0.118896,0.926526 0.116505,0.23622 0.327645,0.583133 0.469202,0.770917 0.441121,0.585181 0.340053,0.732304 -0.503067,0.732304 H 19.131514 L 18.708698,37.67999 C 18.058216,36.488386 17.652489,36.484758 17.580171,37.6699 l -0.04351,0.713055 -0.640312,0.0429 c -0.490343,0.03285 -0.660617,-0.01181 -0.727004,-0.190662 z m 2.463806,-2.730831 c 0.13822,-0.05483 0.219042,-0.260408 0.219042,-0.557135 0,-0.386314 -0.06389,-0.486815 -0.357969,-0.563123 -0.605208,-0.157037 -0.888324,0.02164 -0.888324,0.560636 0,0.57849 0.412818,0.803383 1.027251,0.559622 z m 3.984696,2.769362 c -0.686193,-0.227161 -1.516293,-1.278443 -1.630347,-2.064756 -0.200243,-1.380508 0.506348,-2.535814 1.810945,-2.960971 0.955938,-0.311532 1.613244,-0.22317 2.457494,0.330359 0.764732,0.501393 1.129968,1.24321 1.119649,2.274081 -0.01837,1.835655 -1.887916,3.040287 -3.757741,2.421287 z m 1.839618,-1.429778 c 0.516241,-0.463737 0.604859,-1.237677 0.216167,-1.88788 -0.300682,-0.502981 -0.500924,-0.587249 -1.251698,-0.52675 -1.049481,0.08457 -1.350645,2.184834 -0.371759,2.592585 0.526391,0.219266 1.036968,0.154703 1.40729,-0.177955 z m 2.653944,1.295562 c -0.04691,-0.181064 -0.08614,-1.341614 -0.08718,-2.579001 -0.0017,-2.078886 0.01846,-2.261052 0.265961,-2.397996 0.643181,-0.35587 0.67988,-0.327951 2.628022,1.999258 l 0.419457,0.501074 0.0041,-1.252684 c 0.0022,-0.688976 0.0508,-1.258089 0.107916,-1.264694 0.05712,-0.0066 0.384274,-0.02271 0.727005,-0.03579 l 0.623146,-0.02378 v 2.648532 2.648533 l -0.506669,0.04365 c -0.551061,0.04748 -0.894048,-0.251221 -1.981695,-1.725831 -0.275868,-0.374016 -0.558518,-0.680029 -0.628111,-0.680029 -0.06959,0 -0.144632,0.531496 -0.166754,1.181102 l -0.04022,1.181103 -0.639822,0.04288 c -0.567538,0.03803 -0.649458,0.0057 -0.725114,-0.286327 z m 5.81928,0.219589 c -0.05078,-0.05249 -0.09232,-1.240385 -0.09232,-2.63976 v -2.544318 l 0.588527,-0.0883 c 0.32369,-0.04857 1.149359,-0.06044 1.83482,-0.02639 l 1.246293,0.06191 0.04258,0.590277 c 0.0471,0.652972 0.06031,0.646866 -1.288875,0.595909 -0.304649,-0.01151 -0.678537,0.07482 -0.830862,0.191832 -0.43194,0.331809 -0.07315,0.566993 0.969724,0.635646 l 0.899716,0.05923 v 0.555979 0.555977 h -0.954524 c -0.985258,0 -1.219254,0.145759 -1.034232,0.644238 0.06146,0.16557 0.32786,0.214745 1.163378,0.214745 0.974631,0 1.092832,0.02985 1.174743,0.29666 0.05009,0.163164 0.0531,0.453071 0.0067,0.644238 -0.08384,0.345373 -0.09563,0.347578 -1.85886,0.347578 -0.975965,0 -1.816026,-0.04295 -1.8668,-0.09544 z m 5.031331,-0.07113 C 37.195658,38.06541 37.085896,37.885672 37.33697,37.26443 c 0.240383,-0.594793 0.298263,-0.613051 0.9926,-0.313118 0.273424,0.11811 0.712194,0.214745 0.975046,0.214745 0.788064,0 0.524011,-0.411491 -0.511735,-0.797466 -1.018951,-0.379716 -1.523247,-0.879046 -1.523247,-1.508249 0,-0.927804 0.634406,-1.621227 1.634505,-1.786562 0.635219,-0.105014 2.078032,0.275626 2.190195,0.577811 0.07773,0.209427 -0.302677,1.082076 -0.470189,1.078597 -0.05517,-0.0011 -0.356019,-0.09422 -0.668561,-0.206824 -0.599704,-0.216067 -1.209363,-0.151017 -1.122424,0.119761 0.02838,0.0884 0.472,0.321787 0.985819,0.518637 1.228682,0.470725 1.604965,0.852774 1.604965,1.629557 0,0.722988 -0.295691,1.196608 -0.91375,1.46359 -0.523828,0.226278 -1.824694,0.243151 -2.548175,0.03305 z"
           id="path886"
           sodipodi:nodetypes="ccssssccsssssssssssssscsscsssssssssssssssssssccssccsscccsssscsccsscsscsssscccsssssssssssssssscsssssss" />
        <path
           style="fill:#b3b3b3;stroke-width:0.140801"
           d="m 12.483238,44.532514 c -1.02862,-0.47568 -1.524236,-1.241657 -1.524236,-2.355718 0,-0.881234 0.255087,-1.433791 0.894771,-1.938216 0.842672,-0.664492 2.299813,-0.602709 2.961598,0.12557 0.265366,0.29203 0.279587,0.361697 0.104496,0.511927 -0.163971,0.140689 -0.230399,0.120331 -0.347882,-0.106618 -0.157087,-0.303454 -0.822948,-0.596958 -1.354293,-0.596958 -0.501177,0 -1.353427,0.504708 -1.530428,0.906331 -0.308559,0.700134 -0.339927,1.308486 -0.0995,1.929712 0.462021,1.193786 1.723084,1.602076 2.737217,0.886219 0.565289,-0.399027 0.694936,-0.629763 0.574423,-1.022317 -0.0614,-0.199995 -0.217084,-0.266159 -0.626286,-0.266159 -0.299517,0 -0.544577,-0.06442 -0.544577,-0.143163 0,-0.07874 0.342731,-0.143164 0.761624,-0.143164 h 0.761624 v 1.145311 c 0,0.668099 -0.0577,1.145311 -0.138477,1.145311 -0.07616,0 -0.138477,-0.128847 -0.138477,-0.286327 0,-0.36491 -0.200083,-0.362416 -0.704312,0.0088 -0.538828,0.396664 -1.201056,0.470575 -1.787286,0.199478 z m 12.156096,0.0842 c -0.627508,-0.203037 -1.208351,-0.715015 -1.514077,-1.33457 -0.574875,-1.164986 -0.06168,-2.797616 1.028974,-3.273493 0.899521,-0.392478 2.560979,-0.06752 2.788474,0.545394 0.121418,0.327117 -0.183167,0.353671 -0.579746,0.05054 -0.864987,-0.661156 -2.121576,-0.447348 -2.668676,0.454075 -0.405796,0.668608 -0.327375,1.957563 0.15178,2.494683 0.752851,0.843925 1.783778,0.94091 2.510239,0.236151 0.238973,-0.231834 0.456743,-0.328013 0.607377,-0.268253 0.216978,0.08608 0.215,0.11582 -0.02603,0.391164 -0.534664,0.610793 -1.588881,0.933851 -2.29832,0.704305 z m 4.662143,-0.132063 c -1.135029,-0.533022 -1.749758,-1.783748 -1.425927,-2.901184 0.379602,-1.309878 1.626219,-2.056521 2.86304,-1.714772 2.216026,0.612315 2.375129,3.611704 0.244643,4.611986 -0.710024,0.333363 -0.978985,0.333998 -1.681756,0.004 z m 1.871072,-0.586869 c 0.391325,-0.288079 0.834959,-1.202478 0.834959,-1.720982 0,-0.154294 -0.101336,-0.542371 -0.225193,-0.862395 -0.370768,-0.958005 -1.517308,-1.402199 -2.40052,-0.930015 -0.935456,0.500116 -1.299583,1.532788 -0.911198,2.584178 0.461091,1.248215 1.693086,1.671904 2.701952,0.929214 z m 12.536266,0.72932 c -0.699967,-0.188338 -1.311552,-0.576476 -1.234679,-0.783582 0.05666,-0.152659 0.186779,-0.133095 0.63307,0.09519 0.308961,0.158037 0.862063,0.317171 1.229113,0.353635 0.57886,0.0575 0.714647,0.01741 1.023888,-0.302295 0.196089,-0.202726 0.356524,-0.465646 0.356524,-0.584267 0,-0.249893 -0.529113,-0.799487 -0.769695,-0.799487 -0.352828,0 -1.928852,-0.591418 -2.165134,-0.812488 -0.137578,-0.12872 -0.250142,-0.402988 -0.250142,-0.609484 0,-1.157486 1.626362,-1.813966 2.940704,-1.187015 0.357625,0.170589 0.48276,0.303045 0.405301,0.429012 -0.08956,0.145643 -0.213379,0.138458 -0.616766,-0.03579 -1.111946,-0.480327 -2.167461,-0.11865 -2.173211,0.74466 -0.0026,0.3867 0.51294,0.690472 1.548827,0.912663 1.222849,0.262292 1.749388,0.820797 1.549616,1.643695 -0.177486,0.731092 -1.450561,1.211849 -2.477416,0.935559 z M 5.9969095,44.49398 c 0.5494263,-1.387922 1.8527845,-4.439011 1.9530641,-4.572016 0.2636305,-0.349666 0.46901,-0.166571 0.9053824,0.807144 0.2430571,0.542353 0.4419221,1.024293 0.4419221,1.070978 0,0.04668 0.2492587,0.634957 0.5539081,1.307275 0.6179548,1.363738 0.6489728,1.503221 0.3342798,1.503221 -0.132233,0 -0.3360314,-0.284841 -0.5121533,-0.715819 L 9.3807885,43.178943 H 8.2350667 7.0893448 l -0.2978561,0.71582 c -0.2125465,0.5108 -0.3755999,0.715819 -0.5692971,0.715819 -0.1492926,0 -0.2506697,-0.05247 -0.2252821,-0.116602 z M 8.7679361,41.59615 C 8.5455412,41.016748 8.3066477,40.523073 8.2370619,40.499093 8.1350148,40.463925 7.220123,42.41342 7.220123,42.666034 c 0,0.104201 1.7133317,0.168663 1.841565,0.06929 0.060831,-0.04714 -0.071357,-0.559768 -0.2937519,-1.13917 z m 7.7301469,0.580646 v -2.433787 l 1.003958,8.59e-4 c 1.318128,10e-4 1.963441,0.198073 2.313521,0.706355 0.488151,0.708749 0.250245,1.796484 -0.479363,2.191702 l -0.343373,0.186002 0.548362,0.783984 c 0.620877,0.887658 0.655815,0.998732 0.314151,0.998732 -0.143476,0 -0.469875,-0.352393 -0.796243,-0.859651 l -0.553097,-0.859652 -0.761623,0.03646 -0.761624,0.03646 -0.04153,0.823193 c -0.03047,0.603954 -0.09501,0.823193 -0.242335,0.823193 -0.167547,-6.1e-5 -0.200805,-0.403149 -0.200805,-2.433847 z m 2.804484,-0.115662 c 0.367567,-0.380009 0.354111,-1.120546 -0.02753,-1.515104 -0.226505,-0.234171 -0.504901,-0.307896 -1.324164,-0.350667 l -1.03736,-0.05416 v 1.077448 c 0,0.723925 0.0568,1.103647 0.173096,1.157301 0.0952,0.04392 0.568683,0.05728 1.05218,0.02968 0.658311,-0.03757 0.950582,-0.124093 1.163777,-0.344502 z m 1.903734,0.105165 c 0,-2.250777 0.01919,-2.440475 0.242335,-2.396169 0.217443,0.04317 0.246234,0.294232 0.280302,2.444283 0.03681,2.323196 0.02943,2.396169 -0.242335,2.396169 -0.270473,0 -0.280302,-0.08571 -0.280302,-2.444283 z m 12.462931,0.0105 c 0,-2.049297 0.03226,-2.433787 0.204199,-2.433787 0.16969,0 0.210643,0.381061 0.242335,2.254832 l 0.03813,2.254832 1.41939,-0.0169 c 1.116466,-0.01329 1.419389,0.0249 1.419389,0.178955 0,0.154812 -0.348203,0.195851 -1.661724,0.195851 h -1.661724 z m 3.738879,2.390947 c 0,-0.02356 0.315751,-0.780539 0.70167,-1.682176 0.385919,-0.901635 0.8377,-1.977471 1.003958,-2.390748 0.444576,-1.105101 0.649347,-1.007017 1.344545,0.644038 0.323258,0.767717 0.766245,1.807408 0.984417,2.310425 0.457923,1.05579 0.474288,1.1613 0.180134,1.1613 -0.126838,0 -0.341958,-0.295136 -0.519289,-0.712445 l -0.302748,-0.712445 -1.138586,-0.0034 -1.138586,-0.0034 -0.297857,0.715819 c -0.206113,0.495342 -0.377908,0.71582 -0.557756,0.71582 -0.142946,8e-6 -0.259902,-0.01927 -0.259902,-0.04283 z m 3.146563,-1.862067 c 0.01696,-0.05301 -0.01054,-0.209801 -0.06111,-0.348422 -0.508619,-1.394312 -0.690569,-1.812483 -0.804995,-1.850116 -0.143796,-0.04729 -1.073558,2.060594 -0.978814,2.219089 0.07422,0.124152 1.804796,0.104874 1.844917,-0.02055 z M 21.344778,38.911388 c 0,-0.229476 0.37391,-0.638187 0.533526,-0.583182 0.116504,0.04015 0.100901,0.148166 -0.05455,0.377609 -0.214956,0.317281 -0.478979,0.430597 -0.478979,0.205573 z"
           id="path880"
           sodipodi:nodetypes="cssssssssssssscssscccsssssssssssscsssccsssssssssssssssssscssssssssssscccssssssssscccsscssscccscscssscssssssssssssscssscscsssssscccssccscsssssssss" />
        <path
           style="fill:#4d4d4d;stroke-width:0.140801"
           d="m 19.267623,21.229655 c 0,-0.698527 0.570292,-2.606097 1.037155,-3.469184 0.266222,-0.492161 0.764918,-1.251315 1.108212,-1.68701 0.61953,-0.786278 0.783404,-1.238209 0.451077,-1.243981 -0.0952,-0.0017 -1.41939,0.103822 -2.942637,0.23439 -2.092189,0.179337 -2.871142,0.299487 -3.184971,0.491269 -0.455452,0.278329 -0.752977,0.317289 -2.250251,0.294665 -0.967937,-0.01463 -1.003959,-0.0277 -1.003959,-0.364438 0,-0.300256 0.07287,-0.355503 0.519289,-0.393701 0.447017,-0.03825 0.525251,-0.09777 0.562128,-0.427657 0.0906,-0.810443 0.630784,-0.791967 0.740135,0.02531 0.04118,0.307745 0.128545,0.363988 0.623336,0.401272 0.32347,0.02438 0.808563,-0.0612 1.107816,-0.195421 0.292803,-0.13133 1.124357,-0.481515 1.8479,-0.778189 2.772188,-1.136679 3.184965,-1.319439 3.184771,-1.410083 -4.15e-4,-0.166514 -4.418705,-2.136081 -4.465602,-1.99063 -0.05116,0.15868 -2.109472,0.280785 -2.581582,0.153147 -0.215068,-0.05814 -0.293941,-0.17332 -0.264544,-0.386302 0.03261,-0.236264 0.164237,-0.319307 0.594452,-0.375039 0.413477,-0.05356 0.565002,-0.1436553 0.601969,-0.3579099 0.02717,-0.1574803 0.103026,-0.3448 0.168568,-0.416266 0.165218,-0.1801519 0.546336,0.1723939 0.546336,0.5053777 0,0.2034912 0.101389,0.2687982 0.41731,0.2687982 0.22952,0 0.525514,0.06509 0.657766,0.144641 0.132251,0.07955 1.330962,0.371187 2.663803,0.648076 1.332841,0.276889 2.749415,0.578624 3.147944,0.670522 0.673143,0.155224 0.766554,0.142244 1.315531,-0.182793 0.518529,-0.30701 0.760609,-0.349881 1.975706,-0.349881 1.215097,0 1.457177,0.04287 1.975705,0.349881 0.532781,0.315448 0.655433,0.335081 1.246293,0.199496 0.360448,-0.08271 1.777022,-0.388816 3.147944,-0.68023 1.370923,-0.291414 2.617216,-0.587884 2.76954,-0.658822 0.152325,-0.07094 0.432741,-0.147765 0.623147,-0.170726 0.237916,-0.02869 0.360032,-0.1424936 0.390443,-0.3638648 0.02434,-0.1771654 0.109499,-0.3221189 0.189247,-0.3221189 0.07975,0 0.112421,-0.1287834 0.07261,-0.2861852 -0.08678,-0.3430717 0.0481,-0.4594322 0.323654,-0.2792163 0.138002,0.090256 0.14679,0.1322131 0.02801,0.1337175 -0.0952,0.00121 -0.173096,0.098828 -0.173096,0.2169382 0,0.1181102 0.05798,0.2147458 0.128846,0.2147458 0.07086,0 0.148759,0.1449535 0.173096,0.3221189 0.03541,0.2577589 0.154923,0.3364208 0.598158,0.3937008 0.43455,0.05616 0.553908,0.132127 0.553908,0.352552 0,0.438004 -0.721188,0.581548 -2.026587,0.403368 l -1.105067,-0.150836 -1.549906,0.714121 c -0.852447,0.392766 -1.785391,0.81473 -2.073207,0.937697 -0.287815,0.122967 -0.504625,0.281499 -0.4818,0.352294 0.02283,0.07079 0.912616,0.482975 1.97731,0.915956 1.064695,0.432982 2.286332,0.944368 2.714749,1.136412 0.428416,0.192046 1.035984,0.349173 1.350151,0.349173 0.509129,0 0.571211,-0.03699 0.571211,-0.34038 0,-0.745115 0.774253,-0.865808 0.855494,-0.133358 0.03898,0.35142 0.11012,0.407762 0.563895,0.446589 0.44642,0.0382 0.519289,0.09344 0.519289,0.393701 0,0.336797 -0.03585,0.349786 -1.003958,0.363773 -1.575622,0.02276 -1.955397,-0.0233 -2.221277,-0.269401 -0.326078,-0.301826 -6.12248,-0.875565 -6.360425,-0.629567 -0.109539,0.113248 0.02048,0.36598 0.470293,0.914191 1.273737,1.552353 2.025447,3.218741 2.272281,5.037185 0.107217,0.789876 0.161558,0.79075 -0.99921,-0.01607 -0.658817,-0.457928 -0.717439,-0.54629 -0.802565,-1.209722 -0.24861,-1.937541 -1.424049,-3.605196 -2.849595,-4.042867 -0.926052,-0.284316 -1.232171,-0.286879 -1.334505,-0.01117 -0.108539,0.292419 0.194064,0.642293 0.556082,0.64295 0.39418,7.16e-4 1.127284,0.475794 1.401239,0.908053 0.275997,0.435481 0.439825,1.382034 0.239201,1.382034 -0.07943,0 -0.185324,-0.25028 -0.235314,-0.556179 -0.174661,-1.068802 -1.008579,-1.593213 -2.52545,-1.588135 -1.243615,0.0042 -2.050469,0.371849 -2.32915,1.0614 -0.111377,0.275584 -0.202503,0.631979 -0.202503,0.791988 0,0.16001 -0.06232,0.290926 -0.138477,0.290926 -0.216669,0 -0.157368,-0.587392 0.123952,-1.227753 0.260511,-0.593 0.926777,-1.062869 1.507124,-1.062869 0.343934,0 0.641167,-0.356806 0.535156,-0.642415 -0.101925,-0.274603 -0.408431,-0.273148 -1.318488,0.0063 -1.40262,0.430632 -2.425539,1.781587 -2.79529,3.6917 l -0.217352,1.122829 -0.856229,0.562821 c -0.839019,0.551506 -0.856229,0.556016 -0.856229,0.224338 z m 1.21548,-0.750311 c 0.169272,-0.122576 0.307767,-0.368578 0.307767,-0.546671 0,-0.576688 0.394047,-1.715987 0.885087,-2.559027 0.263713,-0.452756 0.448771,-0.823193 0.411238,-0.823193 -0.474551,0 -1.499049,1.408636 -1.941934,2.670071 -0.496232,1.413377 -0.395242,1.789672 0.337842,1.25882 z m 11.385928,0.02087 c 0,-0.90334 -1.293956,-3.449875 -1.932483,-3.803171 -0.435643,-0.24104 -0.437585,-0.177865 -0.01639,0.533437 0.410675,0.693539 0.979536,2.264063 0.979536,2.704325 0,0.333919 0.403231,0.7674 0.713847,0.7674 0.14052,0 0.255492,-0.0909 0.255492,-0.201991 z M 11.99758,13.830339 c -0.334895,-0.0881 -0.254358,-0.112146 0.415431,-0.124033 0.582805,-0.01034 1.645826,-0.02342 1.500124,0.07392 -0.234817,0.156887 -1.319183,0.207 -1.915555,0.05011 z m 1.995209,-0.05864 c -0.133093,-0.11831 0.851069,-0.08077 1.385938,-0.08233 0.412546,-0.0012 0.724119,0.02147 0.692385,0.0504 -0.160098,0.145919 -1.840317,0.243502 -2.003154,0.09875 z m 21.892075,0.05864 c -0.421798,-0.09179 -0.376892,-0.107632 0.346192,-0.122125 0.582253,-0.01167 1.553814,-0.0085 1.408251,0.08872 -0.228556,0.152703 -1.052729,0.186112 -1.754443,0.03341 z m 1.951027,-0.02736 c -0.164851,-0.05495 0.857233,-0.112035 1.43012,-0.113568 0.450627,-0.0012 0.793357,0.02105 0.761624,0.04947 -0.157781,0.141265 -1.785251,0.199606 -1.991292,0.130921 z M 12.828442,8.9679553 c -0.174819,-0.074389 0.113815,-0.1102753 0.78267,-0.097311 0.582793,0.011297 1.030897,0.068857 0.995786,0.127912 -0.0846,0.1422942 -1.426399,0.1192062 -1.778456,-0.030601 z m 2.301267,0.00529 c -0.139115,-0.088888 -0.131061,-0.1324538 0.0368,-0.199047 0.11819,-0.046889 0.249061,-0.028094 0.290823,0.041766 0.109177,0.1826301 -0.117577,0.2914878 -0.32762,0.1572805 z m 0.763062,0.019357 c -0.03726,-0.062331 0.361614,-0.1164351 0.886391,-0.1202307 0.524776,-0.0038 0.921797,0.047203 0.882266,0.1133298 -0.09123,0.1526078 -1.677852,0.1587987 -1.768657,0.0069 z m 18.136362,-0.0069 c -0.03953,-0.066127 0.35749,-0.1171253 0.882267,-0.1133298 0.524776,0.0038 0.923652,0.057899 0.886391,0.1202307 -0.0908,0.1518978 -1.677428,0.1457069 -1.768658,-0.0069 z m 3.054319,0.012858 c -0.03523,-0.059055 0.412874,-0.1151382 0.995785,-0.124629 0.680631,-0.011082 0.93597,0.02223 0.713644,0.093102 -0.457914,0.1459726 -1.628283,0.1675575 -1.709429,0.031527 z"
           id="path878"
           sodipodi:nodetypes="ssscsssssssssscssssssssssssssssssssssssssssscssssssssssssssssssssssscsssssscscsssssssssssssssssssssscssssssssssssssssssssssssssssssssss" />
      </g>
      <g
         id="g909"
         transform="matrix(1.491509,0,0,1.491509,-14.689898,-4.5090212)">
        <path
           style="fill:#29b140;stroke-width:0.140801;fill-opacity:1"
           d="m 23.906603,32.060611 c -2.690553,-0.335539 -6.602468,-1.320693 -8.170144,-2.057522 -0.152325,-0.07159 -0.775471,-0.361589 -1.38477,-0.644434 -0.807395,-0.374801 -1.051487,-0.546578 -0.900101,-0.633436 0.281253,-0.161367 3.024935,-0.959003 4.223549,-1.227858 4.479186,-1.004706 9.662955,-1.133805 13.951359,-0.347453 2.355607,0.431941 2.735121,0.477188 2.735121,0.326087 0,-0.180146 -2.797113,-1.116841 -4.292788,-1.437566 -1.456106,-0.312239 -6.707892,-0.349656 -8.654813,-0.06166 -2.052002,0.303539 -5.681121,1.10609 -7.893189,1.745518 -1.142435,0.330236 -2.201785,0.630634 -2.354109,0.66755 -0.152325,0.03692 -0.401584,0.122733 -0.553908,0.190702 -0.152325,0.06797 -1.2428314,0.458498 -2.4233479,0.867842 -1.1805165,0.409344 -2.2398657,0.777427 -2.3541092,0.817961 -0.3873457,0.137434 0.4725662,-0.719756 1.5812988,-1.576292 3.0663363,-2.368854 6.7024493,-3.924406 11.4355403,-4.892194 4.571202,-0.934688 11.177595,-0.826271 15.578663,0.255656 1.614182,0.39682 2.021248,0.520143 3.450554,1.045369 2.99358,1.100046 5.602587,2.647408 7.316438,4.339268 l 0.865077,0.853979 -0.969339,-0.375999 c -3.1468,-1.220615 -7.698323,-2.695533 -7.998769,-2.591996 -0.08555,0.02948 0.121316,0.167711 0.459691,0.307177 1.120615,0.46188 3.315529,1.583843 3.315529,1.694782 0,0.226021 -3.682382,0.0013 -7.477758,-0.45647 -3.456503,-0.416837 -4.217642,-0.465861 -6.026056,-0.388131 -1.697441,0.07296 -3.49836,0.317149 -3.363936,0.456123 0.02505,0.0259 1.447013,0.119556 3.159907,0.208119 3.921354,0.202745 7.444549,0.771959 7.938422,1.282548 0.264198,0.273141 -3.504793,1.265661 -5.997492,1.579367 -1.094764,0.137777 -4.257934,0.170017 -5.19652,0.05297 z"
           id="path899"
           sodipodi:nodetypes="ssssssssssssssssssscsssscsssssss" />
        <path
           style="fill:#3d93cc;stroke-width:0.140801"
           d="m 10.713612,35.77021 0.03768,-2.684323 1.246293,0.01125 c 2.458616,0.0222 3.392687,0.750821 3.392687,2.64647 0,1.200763 -0.372896,1.876238 -1.299232,2.353474 -0.598298,0.308237 -0.881159,0.357451 -2.054461,0.357451 h -1.360637 z m 2.873488,1.040713 c 0.382316,-0.357702 0.472284,-1.130574 0.200528,-1.72264 -0.235077,-0.512156 -0.705101,-0.735303 -1.388712,-0.659301 -0.17186,0.01911 -0.373576,2.172418 -0.237778,2.538279 0.109394,0.294726 1.054622,0.191094 1.425962,-0.156338 z m 2.582244,1.424264 c -0.04768,-0.12846 -0.08669,-1.316606 -0.08669,-2.640324 0,-1.795963 0.04393,-2.422941 0.173096,-2.470515 0.0952,-0.03506 0.765085,-0.0555 1.488628,-0.04542 0.954112,0.0133 1.438531,0.08627 1.763237,0.265606 0.885419,0.489024 1.142271,1.770766 0.537101,2.680252 -0.311415,0.468014 -0.318357,0.522109 -0.118896,0.926526 0.116505,0.23622 0.327645,0.583133 0.469202,0.770917 0.441121,0.585181 0.340053,0.732304 -0.503067,0.732304 H 19.131514 L 18.708698,37.67999 C 18.058216,36.488386 17.652489,36.484758 17.580171,37.6699 l -0.04351,0.713055 -0.640312,0.0429 c -0.490343,0.03285 -0.660617,-0.01181 -0.727004,-0.190662 z m 2.463806,-2.730831 c 0.13822,-0.05483 0.219042,-0.260408 0.219042,-0.557135 0,-0.386314 -0.06389,-0.486815 -0.357969,-0.563123 -0.605208,-0.157037 -0.888324,0.02164 -0.888324,0.560636 0,0.57849 0.412818,0.803383 1.027251,0.559622 z m 3.984696,2.769362 c -0.686193,-0.227161 -1.516293,-1.278443 -1.630347,-2.064756 -0.200243,-1.380508 0.506348,-2.535814 1.810945,-2.960971 0.955938,-0.311532 1.613244,-0.22317 2.457494,0.330359 0.764732,0.501393 1.129968,1.24321 1.119649,2.274081 -0.01837,1.835655 -1.887916,3.040287 -3.757741,2.421287 z m 1.839618,-1.429778 c 0.516241,-0.463737 0.604859,-1.237677 0.216167,-1.88788 -0.300682,-0.502981 -0.500924,-0.587249 -1.251698,-0.52675 -1.049481,0.08457 -1.350645,2.184834 -0.371759,2.592585 0.526391,0.219266 1.036968,0.154703 1.40729,-0.177955 z m 2.653944,1.295562 c -0.04691,-0.181064 -0.08614,-1.341614 -0.08718,-2.579001 -0.0017,-2.078886 0.01846,-2.261052 0.265961,-2.397996 0.643181,-0.35587 0.67988,-0.327951 2.628022,1.999258 l 0.419457,0.501074 0.0041,-1.252684 c 0.0022,-0.688976 0.0508,-1.258089 0.107916,-1.264694 0.05712,-0.0066 0.384274,-0.02271 0.727005,-0.03579 l 0.623146,-0.02378 v 2.648532 2.648533 l -0.506669,0.04365 c -0.551061,0.04748 -0.894048,-0.251221 -1.981695,-1.725831 -0.275868,-0.374016 -0.558518,-0.680029 -0.628111,-0.680029 -0.06959,0 -0.144632,0.531496 -0.166754,1.181102 l -0.04022,1.181103 -0.639822,0.04288 c -0.567538,0.03803 -0.649458,0.0057 -0.725114,-0.286327 z m 5.81928,0.219589 c -0.05078,-0.05249 -0.09232,-1.240385 -0.09232,-2.63976 v -2.544318 l 0.588527,-0.0883 c 0.32369,-0.04857 1.149359,-0.06044 1.83482,-0.02639 l 1.246293,0.06191 0.04258,0.590277 c 0.0471,0.652972 0.06031,0.646866 -1.288875,0.595909 -0.304649,-0.01151 -0.678537,0.07482 -0.830862,0.191832 -0.43194,0.331809 -0.07315,0.566993 0.969724,0.635646 l 0.899716,0.05923 v 0.555979 0.555977 h -0.954524 c -0.985258,0 -1.219254,0.145759 -1.034232,0.644238 0.06146,0.16557 0.32786,0.214745 1.163378,0.214745 0.974631,0 1.092832,0.02985 1.174743,0.29666 0.05009,0.163164 0.0531,0.453071 0.0067,0.644238 -0.08384,0.345373 -0.09563,0.347578 -1.85886,0.347578 -0.975965,0 -1.816026,-0.04295 -1.8668,-0.09544 z m 5.031331,-0.07113 C 37.195658,38.06541 37.085896,37.885672 37.33697,37.26443 c 0.240383,-0.594793 0.298263,-0.613051 0.9926,-0.313118 0.273424,0.11811 0.712194,0.214745 0.975046,0.214745 0.788064,0 0.524011,-0.411491 -0.511735,-0.797466 -1.018951,-0.379716 -1.523247,-0.879046 -1.523247,-1.508249 0,-0.927804 0.634406,-1.621227 1.634505,-1.786562 0.635219,-0.105014 2.078032,0.275626 2.190195,0.577811 0.07773,0.209427 -0.302677,1.082076 -0.470189,1.078597 -0.05517,-0.0011 -0.356019,-0.09422 -0.668561,-0.206824 -0.599704,-0.216067 -1.209363,-0.151017 -1.122424,0.119761 0.02838,0.0884 0.472,0.321787 0.985819,0.518637 1.228682,0.470725 1.604965,0.852774 1.604965,1.629557 0,0.722988 -0.295691,1.196608 -0.91375,1.46359 -0.523828,0.226278 -1.824694,0.243151 -2.548175,0.03305 z"
           id="path901"
           sodipodi:nodetypes="ccssssccsssssssssssssscsscsssssssssssssssssssccssccsscccsssscsccsscsscsssscccsssssssssssssssscsssssss" />
        <path
           style="fill:#e6e6e6;stroke-width:0.140801"
           d="m 12.483238,44.532514 c -1.02862,-0.47568 -1.524236,-1.241657 -1.524236,-2.355718 0,-0.881234 0.255087,-1.433791 0.894771,-1.938216 0.842672,-0.664492 2.299813,-0.602709 2.961598,0.12557 0.265366,0.29203 0.279587,0.361697 0.104496,0.511927 -0.163971,0.140689 -0.230399,0.120331 -0.347882,-0.106618 -0.157087,-0.303454 -0.822948,-0.596958 -1.354293,-0.596958 -0.501177,0 -1.353427,0.504708 -1.530428,0.906331 -0.308559,0.700134 -0.339927,1.308486 -0.0995,1.929712 0.462021,1.193786 1.723084,1.602076 2.737217,0.886219 0.565289,-0.399027 0.694936,-0.629763 0.574423,-1.022317 -0.0614,-0.199995 -0.217084,-0.266159 -0.626286,-0.266159 -0.299517,0 -0.544577,-0.06442 -0.544577,-0.143163 0,-0.07874 0.342731,-0.143164 0.761624,-0.143164 h 0.761624 v 1.145311 c 0,0.668099 -0.0577,1.145311 -0.138477,1.145311 -0.07616,0 -0.138477,-0.128847 -0.138477,-0.286327 0,-0.36491 -0.200083,-0.362416 -0.704312,0.0088 -0.538828,0.396664 -1.201056,0.470575 -1.787286,0.199478 z m 12.156096,0.0842 c -0.627508,-0.203037 -1.208351,-0.715015 -1.514077,-1.33457 -0.574875,-1.164986 -0.06168,-2.797616 1.028974,-3.273493 0.899521,-0.392478 2.560979,-0.06752 2.788474,0.545394 0.121418,0.327117 -0.183167,0.353671 -0.579746,0.05054 -0.864987,-0.661156 -2.121576,-0.447348 -2.668676,0.454075 -0.405796,0.668608 -0.327375,1.957563 0.15178,2.494683 0.752851,0.843925 1.783778,0.94091 2.510239,0.236151 0.238973,-0.231834 0.456743,-0.328013 0.607377,-0.268253 0.216978,0.08608 0.215,0.11582 -0.02603,0.391164 -0.534664,0.610793 -1.588881,0.933851 -2.29832,0.704305 z m 4.662143,-0.132063 c -1.135029,-0.533022 -1.749758,-1.783748 -1.425927,-2.901184 0.379602,-1.309878 1.626219,-2.056521 2.86304,-1.714772 2.216026,0.612315 2.375129,3.611704 0.244643,4.611986 -0.710024,0.333363 -0.978985,0.333998 -1.681756,0.004 z m 1.871072,-0.586869 c 0.391325,-0.288079 0.834959,-1.202478 0.834959,-1.720982 0,-0.154294 -0.101336,-0.542371 -0.225193,-0.862395 -0.370768,-0.958005 -1.517308,-1.402199 -2.40052,-0.930015 -0.935456,0.500116 -1.299583,1.532788 -0.911198,2.584178 0.461091,1.248215 1.693086,1.671904 2.701952,0.929214 z m 12.536266,0.72932 c -0.699967,-0.188338 -1.311552,-0.576476 -1.234679,-0.783582 0.05666,-0.152659 0.186779,-0.133095 0.63307,0.09519 0.308961,0.158037 0.862063,0.317171 1.229113,0.353635 0.57886,0.0575 0.714647,0.01741 1.023888,-0.302295 0.196089,-0.202726 0.356524,-0.465646 0.356524,-0.584267 0,-0.249893 -0.529113,-0.799487 -0.769695,-0.799487 -0.352828,0 -1.928852,-0.591418 -2.165134,-0.812488 -0.137578,-0.12872 -0.250142,-0.402988 -0.250142,-0.609484 0,-1.157486 1.626362,-1.813966 2.940704,-1.187015 0.357625,0.170589 0.48276,0.303045 0.405301,0.429012 -0.08956,0.145643 -0.213379,0.138458 -0.616766,-0.03579 -1.111946,-0.480327 -2.167461,-0.11865 -2.173211,0.74466 -0.0026,0.3867 0.51294,0.690472 1.548827,0.912663 1.222849,0.262292 1.749388,0.820797 1.549616,1.643695 -0.177486,0.731092 -1.450561,1.211849 -2.477416,0.935559 z M 5.9969095,44.49398 c 0.5494263,-1.387922 1.8527845,-4.439011 1.9530641,-4.572016 0.2636305,-0.349666 0.46901,-0.166571 0.9053824,0.807144 0.2430571,0.542353 0.4419221,1.024293 0.4419221,1.070978 0,0.04668 0.2492587,0.634957 0.5539081,1.307275 0.6179548,1.363738 0.6489728,1.503221 0.3342798,1.503221 -0.132233,0 -0.3360314,-0.284841 -0.5121533,-0.715819 L 9.3807885,43.178943 H 8.2350667 7.0893448 l -0.2978561,0.71582 c -0.2125465,0.5108 -0.3755999,0.715819 -0.5692971,0.715819 -0.1492926,0 -0.2506697,-0.05247 -0.2252821,-0.116602 z M 8.7679361,41.59615 C 8.5455412,41.016748 8.3066477,40.523073 8.2370619,40.499093 8.1350148,40.463925 7.220123,42.41342 7.220123,42.666034 c 0,0.104201 1.7133317,0.168663 1.841565,0.06929 0.060831,-0.04714 -0.071357,-0.559768 -0.2937519,-1.13917 z m 7.7301469,0.580646 v -2.433787 l 1.003958,8.59e-4 c 1.318128,10e-4 1.963441,0.198073 2.313521,0.706355 0.488151,0.708749 0.250245,1.796484 -0.479363,2.191702 l -0.343373,0.186002 0.548362,0.783984 c 0.620877,0.887658 0.655815,0.998732 0.314151,0.998732 -0.143476,0 -0.469875,-0.352393 -0.796243,-0.859651 l -0.553097,-0.859652 -0.761623,0.03646 -0.761624,0.03646 -0.04153,0.823193 c -0.03047,0.603954 -0.09501,0.823193 -0.242335,0.823193 -0.167547,-6.1e-5 -0.200805,-0.403149 -0.200805,-2.433847 z m 2.804484,-0.115662 c 0.367567,-0.380009 0.354111,-1.120546 -0.02753,-1.515104 -0.226505,-0.234171 -0.504901,-0.307896 -1.324164,-0.350667 l -1.03736,-0.05416 v 1.077448 c 0,0.723925 0.0568,1.103647 0.173096,1.157301 0.0952,0.04392 0.568683,0.05728 1.05218,0.02968 0.658311,-0.03757 0.950582,-0.124093 1.163777,-0.344502 z m 1.903734,0.105165 c 0,-2.250777 0.01919,-2.440475 0.242335,-2.396169 0.217443,0.04317 0.246234,0.294232 0.280302,2.444283 0.03681,2.323196 0.02943,2.396169 -0.242335,2.396169 -0.270473,0 -0.280302,-0.08571 -0.280302,-2.444283 z m 12.462931,0.0105 c 0,-2.049297 0.03226,-2.433787 0.204199,-2.433787 0.16969,0 0.210643,0.381061 0.242335,2.254832 l 0.03813,2.254832 1.41939,-0.0169 c 1.116466,-0.01329 1.419389,0.0249 1.419389,0.178955 0,0.154812 -0.348203,0.195851 -1.661724,0.195851 h -1.661724 z m 3.738879,2.390947 c 0,-0.02356 0.315751,-0.780539 0.70167,-1.682176 0.385919,-0.901635 0.8377,-1.977471 1.003958,-2.390748 0.444576,-1.105101 0.649347,-1.007017 1.344545,0.644038 0.323258,0.767717 0.766245,1.807408 0.984417,2.310425 0.457923,1.05579 0.474288,1.1613 0.180134,1.1613 -0.126838,0 -0.341958,-0.295136 -0.519289,-0.712445 l -0.302748,-0.712445 -1.138586,-0.0034 -1.138586,-0.0034 -0.297857,0.715819 c -0.206113,0.495342 -0.377908,0.71582 -0.557756,0.71582 -0.142946,8e-6 -0.259902,-0.01927 -0.259902,-0.04283 z m 3.146563,-1.862067 c 0.01696,-0.05301 -0.01054,-0.209801 -0.06111,-0.348422 -0.508619,-1.394312 -0.690569,-1.812483 -0.804995,-1.850116 -0.143796,-0.04729 -1.073558,2.060594 -0.978814,2.219089 0.07422,0.124152 1.804796,0.104874 1.844917,-0.02055 z M 21.344778,38.911388 c -0.03033,-0.227463 0.37391,-0.638187 0.533526,-0.583182 0.116504,0.04015 0.100901,0.148166 -0.05455,0.377609 -0.214956,0.317281 -0.399004,0.805401 -0.428742,0.582351 z"
           id="path905"
           sodipodi:nodetypes="cssssssssssssscssscccsssssssssssscsssccsssssssssssssssssscssssssssssscccssssssssscccsscssscccscscssscssssssssssssscssscscsssssscccssccscsssssssss" />
        <path
           style="fill:#4d4d4d;stroke-width:0.140801"
           d="m 19.267623,21.229655 c 0,-0.698527 0.570292,-2.606097 1.037155,-3.469184 0.266222,-0.492161 0.764918,-1.251315 1.108212,-1.68701 0.61953,-0.786278 0.783404,-1.238209 0.451077,-1.243981 -0.0952,-0.0017 -1.41939,0.103822 -2.942637,0.23439 -2.092189,0.179337 -2.871142,0.299487 -3.184971,0.491269 -0.455452,0.278329 -0.752977,0.317289 -2.250251,0.294665 -0.967937,-0.01463 -1.003959,-0.0277 -1.003959,-0.364438 0,-0.300256 0.07287,-0.355503 0.519289,-0.393701 0.447017,-0.03825 0.52525,-0.09777 0.562128,-0.427657 0.04412,-0.394631 0.19483,-1.170448 0.350494,-1.175478 0.16402,-0.0053 0.333536,0.781469 0.389641,1.200788 0.04118,0.307746 0.128545,0.363988 0.623336,0.401272 0.32347,0.02438 0.808563,-0.0612 1.107816,-0.195421 0.292803,-0.13133 1.124357,-0.481515 1.8479,-0.778189 2.772188,-1.136679 3.184965,-1.319439 3.184771,-1.410083 -4.15e-4,-0.166514 -4.418705,-2.136081 -4.465602,-1.99063 -0.05116,0.15868 -2.109472,0.280785 -2.581582,0.153147 -0.215068,-0.05814 -0.293941,-0.17332 -0.264544,-0.386302 0.03261,-0.236264 0.164237,-0.319307 0.594452,-0.375039 0.413477,-0.05356 0.565002,-0.1436553 0.601969,-0.3579099 0.02717,-0.1574803 0.153263,-0.7466963 0.218805,-0.8181623 0.165218,-0.1801519 0.496099,0.5742902 0.496099,0.907274 0,0.2034912 0.101389,0.2687982 0.41731,0.2687982 0.22952,0 0.525514,0.06509 0.657766,0.144641 0.132251,0.07955 1.330962,0.371187 2.663803,0.648076 1.332841,0.276889 2.749415,0.578624 3.147944,0.670522 0.673143,0.155224 0.766554,0.142244 1.315531,-0.182793 0.518529,-0.30701 0.760609,-0.349881 1.975706,-0.349881 1.215097,0 1.457177,0.04287 1.975705,0.349881 0.532781,0.315448 0.655433,0.335081 1.246293,0.199496 0.360448,-0.08271 1.777022,-0.388816 3.147944,-0.68023 1.370923,-0.291414 2.617216,-0.587884 2.76954,-0.658822 0.152325,-0.07094 0.432741,-0.147765 0.623147,-0.170726 0.237916,-0.02869 0.360032,-0.1424936 0.390443,-0.3638648 0.02434,-0.1771654 0.109499,-0.3221189 0.189247,-0.3221189 0.07975,0 0.112421,-0.1287834 0.07261,-0.2861852 -0.08678,-0.3430717 0.0481,-0.4594322 0.323654,-0.2792163 0.138002,0.090256 0.14679,0.1322131 0.02801,0.1337175 -0.0952,0.00121 -0.173096,0.098828 -0.173096,0.2169382 0,0.1181102 0.05798,0.2147458 0.128846,0.2147458 0.07086,0 0.148759,0.1449535 0.173096,0.3221189 0.03541,0.2577589 0.154923,0.3364208 0.598158,0.3937008 0.43455,0.05616 0.553908,0.132127 0.553908,0.352552 0,0.438004 -0.721188,0.581548 -2.026587,0.403368 l -1.105067,-0.150836 -1.549906,0.714121 c -0.852447,0.392766 -1.785391,0.81473 -2.073207,0.937697 -0.287815,0.122967 -0.504625,0.281499 -0.4818,0.352294 0.02283,0.07079 0.912616,0.482975 1.97731,0.915956 1.064695,0.432982 2.286332,0.944368 2.714749,1.136412 0.428416,0.192046 1.035984,0.349173 1.350151,0.349173 0.509129,0 0.571211,-0.03699 0.571211,-0.34038 0,-0.431261 0.259368,-1.205953 0.493619,-1.174516 0.170479,0.02288 0.327655,0.732638 0.361875,1.041158 0.03898,0.35142 0.11012,0.407762 0.563895,0.446589 0.44642,0.0382 0.519289,0.09344 0.519289,0.393701 0,0.336797 -0.03585,0.349786 -1.003958,0.363773 -1.575622,0.02276 -1.955397,-0.0233 -2.221277,-0.269401 -0.326078,-0.301826 -6.12248,-0.875565 -6.360425,-0.629567 -0.109539,0.113248 0.02048,0.36598 0.470293,0.914191 1.273737,1.552353 2.025447,3.218741 2.272281,5.037185 0.107217,0.789876 0.161558,0.79075 -0.99921,-0.01607 -0.658817,-0.457928 -0.717439,-0.54629 -0.802565,-1.209722 -0.24861,-1.937541 -1.424049,-3.605196 -2.849595,-4.042867 -0.926052,-0.284316 -1.232171,-0.286879 -1.334505,-0.01117 -0.108539,0.292419 0.194064,0.642293 0.556082,0.64295 0.39418,7.16e-4 1.127284,0.475794 1.401239,0.908053 0.275997,0.435481 0.439825,1.382034 0.239201,1.382034 -0.07943,0 -0.185324,-0.25028 -0.235314,-0.556179 -0.174661,-1.068802 -1.008579,-1.593213 -2.52545,-1.588135 -1.243615,0.0042 -2.050469,0.371849 -2.32915,1.0614 -0.111377,0.275584 -0.202503,0.631979 -0.202503,0.791988 0,0.16001 -0.06232,0.290926 -0.138477,0.290926 -0.216669,0 -0.157368,-0.587392 0.123952,-1.227753 0.260511,-0.593 0.926777,-1.062869 1.507124,-1.062869 0.343934,0 0.641167,-0.356806 0.535156,-0.642415 -0.101925,-0.274603 -0.408431,-0.273148 -1.318488,0.0063 -1.40262,0.430632 -2.425539,1.781587 -2.79529,3.6917 l -0.217352,1.122829 -0.856229,0.562821 c -0.839019,0.551506 -0.856229,0.556016 -0.856229,0.224338 z m 1.21548,-0.750311 c 0.169272,-0.122576 0.307767,-0.368578 0.307767,-0.546671 0,-0.576688 0.394047,-1.715987 0.885087,-2.559027 0.263713,-0.452756 0.448771,-0.823193 0.411238,-0.823193 -0.474551,0 -1.499049,1.408636 -1.941934,2.670071 -0.496232,1.413377 -0.395242,1.789672 0.337842,1.25882 z m 11.385928,0.02087 c 0,-0.90334 -1.293956,-3.449875 -1.932483,-3.803171 -0.435643,-0.24104 -0.437585,-0.177865 -0.01639,0.533437 0.410675,0.693539 0.979536,2.264063 0.979536,2.704325 0,0.333919 0.403231,0.7674 0.713847,0.7674 0.14052,0 0.255492,-0.0909 0.255492,-0.201991 z M 11.99758,13.830339 c -0.334895,-0.0881 -0.254358,-0.112146 0.415431,-0.124033 0.582805,-0.01034 1.645826,-0.02342 1.500124,0.07392 -0.234817,0.156887 -1.319183,0.207 -1.915555,0.05011 z m 1.995209,-0.05864 c -0.133093,-0.11831 0.851069,-0.08077 1.385938,-0.08233 0.412546,-0.0012 0.724119,0.02147 0.692385,0.0504 -0.160098,0.145919 -1.840317,0.243502 -2.003154,0.09875 z m 21.892075,0.05864 c -0.421798,-0.09179 -0.376892,-0.107632 0.346192,-0.122125 0.582253,-0.01167 1.553814,-0.0085 1.408251,0.08872 -0.228556,0.152703 -1.052729,0.186112 -1.754443,0.03341 z m 1.951027,-0.02736 c -0.164851,-0.05495 0.857233,-0.112035 1.43012,-0.113568 0.450627,-0.0012 0.793357,0.02105 0.761624,0.04947 -0.157781,0.141265 -1.785251,0.199606 -1.991292,0.130921 z M 12.828442,8.9679553 c -0.174819,-0.074389 0.113815,-0.1102753 0.78267,-0.097311 0.582793,0.011297 1.65886,0.081416 1.623749,0.1404713 -0.0846,0.1422942 -2.054362,0.1066469 -2.406419,-0.04316 z m 2.301267,0.00529 c -0.139115,-0.088888 -0.131061,-0.1324538 0.0368,-0.199047 0.11819,-0.046889 0.249061,-0.028094 0.290823,0.041766 0.109177,0.1826301 -0.117577,0.2914878 -0.32762,0.1572805 z m 0.185336,0.019357 c -0.03726,-0.062331 0.93934,-0.1164351 1.464117,-0.1202307 0.524776,-0.0038 0.921797,0.047203 0.882266,0.1133298 -0.09123,0.1526078 -2.255578,0.1587987 -2.346383,0.0069 z m 18.714088,-0.0069 c -0.03953,-0.066127 0.35749,-0.1171253 0.882267,-0.1133298 0.524776,0.0038 1.501378,0.057899 1.464117,0.1202307 -0.0908,0.1518978 -2.255154,0.1457069 -2.346384,-0.0069 z m 2.464034,-0.012261 c -0.03523,-0.059055 1.003159,-0.09002 1.58607,-0.09951 0.680631,-0.011082 0.93597,0.02223 0.713644,0.093102 -0.457914,0.1459726 -2.218568,0.142439 -2.299714,0.00641 z"
           id="path907"
           sodipodi:nodetypes="ssscssssssssssscssssssssssssssssssssssssssssscsssssssssssssssssssssssscsssssscscsssssssssssssssssssssscsssssssssssssssssssssssssssssssssss" />
      </g>
      <text
         xml:space="preserve"
         id="text925"
         style="font-style:normal;font-weight:normal;font-size:8.39205px;line-height:1.25;font-family:sans-serif;white-space:pre;shape-inside:url(#rect927);fill:#e6e6e6;fill-opacity:1;stroke:none;"
         transform="translate(-8.4669762,-15.210586)"><tspan
           x="11.103516"
           y="83.13679"><tspan
             style="font-style:normal;font-variant:normal;font-weight:normal;font-stretch:normal;font-size:6.15417px;font-family:Calibri;-inkscape-font-specification:Calibri;fill:#e6e6e6">de Córdoba S.A.S</tspan></tspan></text>
    </g>
    <g
       id="g937"
       transform="translate(63.877976,82.776786)" />
    <g
       id="g931"
       transform="translate(55.184524,114.14881)" />
  </g>
</svg>
