<?xml version="1.0" encoding="UTF-8" standalone="no"?>
<svg
   xmlns:dc="http://purl.org/dc/elements/1.1/"
   xmlns:cc="http://creativecommons.org/ns#"
   xmlns:rdf="http://www.w3.org/1999/02/22-rdf-syntax-ns#"
   xmlns:svg="http://www.w3.org/2000/svg"
   xmlns="http://www.w3.org/2000/svg"
   xmlns:sodipodi="http://sodipodi.sourceforge.net/DTD/sodipodi-0.dtd"
   xmlns:inkscape="http://www.inkscape.org/namespaces/inkscape"
   width="300"
   height="300"
   viewBox="0 0 79.375002 79.374997"
   version="1.1"
   id="svg8"
   inkscape:version="1.0.1 (3bc2e813f5, 2020-09-07)"
   sodipodi:docname="DAC_Logo.svg"
   inkscape:export-filename="E:\JS\P08_DAC_Brochure\img\DAC_Logo-Color-Null2.png"
   inkscape:export-xdpi="100.06082"
   inkscape:export-ydpi="100.06082">
  <defs
     id="defs2">
    <rect
       x="55.011846"
       y="58.395977"
       width="24.876426"
       height="60.093053"
       id="rect933" />
    <rect
       x="52.314403"
       y="46.707054"
       width="69.833822"
       height="19.631397"
       id="rect865" />
    <rect
       x="40.90487"
       y="31.223732"
       width="31.950756"
       height="10.147882"
       id="rect859" />
    <rect
       x="11.103456"
       y="75.479787"
       width="71.332402"
       height="19.031964"
       id="rect927" />
    <rect
       x="46.113094"
       y="49.514881"
       width="50.648808"
       height="24.946428"
       id="rect855" />
    <rect
       x="39.536308"
       y="8.4099693"
       width="84.43988"
       height="35.057293"
       id="rect849" />
    <rect
       x="46.113094"
       y="49.514881"
       width="115.66071"
       height="23.434523"
       id="rect855-0" />
    <rect
       x="46.113094"
       y="49.514881"
       width="50.648808"
       height="24.946428"
       id="rect897" />
    <rect
       x="39.536308"
       y="8.4099693"
       width="84.43988"
       height="35.057293"
       id="rect849-9" />
    <rect
       x="39.536308"
       y="8.4099693"
       width="84.43988"
       height="35.057293"
       id="rect997" />
    <rect
       x="46.113094"
       y="49.514881"
       width="99.596725"
       height="29.671129"
       id="rect855-0-5" />
    <rect
       x="46.113094"
       y="49.514881"
       width="115.66071"
       height="23.434523"
       id="rect873" />
  </defs>
  <sodipodi:namedview
     id="base"
     pagecolor="#ffffff"
     bordercolor="#666666"
     borderopacity="1.0"
     inkscape:pageopacity="0.0"
     inkscape:pageshadow="2"
     inkscape:zoom="0.98994949"
     inkscape:cx="145.59872"
     inkscape:cy="158.22724"
     inkscape:document-units="mm"
     inkscape:current-layer="g876"
     inkscape:document-rotation="0"
     showgrid="false"
     inkscape:showpageshadow="false"
     inkscape:window-width="1366"
     inkscape:window-height="715"
     inkscape:window-x="-8"
     inkscape:window-y="-8"
     inkscape:window-maximized="1"
     units="px" />
  <metadata
     id="metadata5">
    <rdf:RDF>
      <cc:Work
         rdf:about="">
        <dc:format>image/svg+xml</dc:format>
        <dc:type
           rdf:resource="http://purl.org/dc/dcmitype/StillImage" />
        <dc:title />
      </cc:Work>
    </rdf:RDF>
  </metadata>
  <g
     inkscape:label="Layer 1"
     inkscape:groupmode="layer"
     id="layer1">
    <g
       id="g876"
       transform="matrix(1.2611146,0,0,1.2611146,9.053817,-9.0100901)"
       inkscape:export-filename="C:\Users\Leandro\Pictures\Ink\DAC\DAC_Logo_Color-Null.png"
       inkscape:export-xdpi="88.4048"
       inkscape:export-ydpi="88.4048">
      <g
         id="g897"
         transform="matrix(1.491509,0,0,1.491509,-14.689898,-4.5090212)">
        <path
           style="fill:#ffff00;stroke-width:0.140801;fill-opacity:1"
           d="m 23.906603,32.060611 c -2.690553,-0.335539 -6.602468,-1.320693 -8.170144,-2.057522 -0.152325,-0.07159 -0.775471,-0.361589 -1.38477,-0.644434 -0.807395,-0.374801 -1.051487,-0.546578 -0.900101,-0.633436 0.281253,-0.161367 3.024935,-0.959003 4.223549,-1.227858 4.479186,-1.004706 9.662955,-1.133805 13.951359,-0.347453 2.355607,0.431941 2.735121,0.477188 2.735121,0.326087 0,-0.180146 -2.797113,-1.116841 -4.292788,-1.437566 -1.456106,-0.312239 -6.707892,-0.349656 -8.654813,-0.06166 -2.052002,0.303539 -5.681121,1.10609 -7.893189,1.745518 -1.142435,0.330236 -2.201785,0.630634 -2.354109,0.66755 -0.152325,0.03692 -0.401584,0.122733 -0.553908,0.190702 -0.152325,0.06797 -1.2428314,0.458498 -2.4233479,0.867842 -1.1805165,0.409344 -2.2398657,0.777427 -2.3541092,0.817961 -0.3873457,0.137434 0.4725662,-0.719756 1.5812988,-1.576292 3.0663363,-2.368854 6.7024493,-3.924406 11.4355403,-4.892194 4.571202,-0.934688 11.177595,-0.826271 15.578663,0.255656 1.614182,0.39682 2.021248,0.520143 3.450554,1.045369 2.99358,1.100046 5.602587,2.647408 7.316438,4.339268 l 0.865077,0.853979 -0.969339,-0.375999 c -3.1468,-1.220615 -7.698323,-2.695533 -7.998769,-2.591996 -0.08555,0.02948 0.121316,0.167711 0.459691,0.307177 1.120615,0.46188 3.315529,1.583843 3.315529,1.694782 0,0.226021 -3.682382,0.0013 -7.477758,-0.45647 -3.456503,-0.416837 -4.217642,-0.465861 -6.026056,-0.388131 -1.697441,0.07296 -3.49836,0.317149 -3.363936,0.456123 0.02505,0.0259 1.447013,0.119556 3.159907,0.208119 3.921354,0.202745 7.444549,0.771959 7.938422,1.282548 0.264198,0.273141 -3.504793,1.265661 -5.997492,1.579367 -1.094764,0.137777 -4.257934,0.170017 -5.19652,0.05297 z m 3.078229,-1.423424 c -0.04602,-0.04757 -0.165453,-0.05266 -0.265415,-0.0113 -0.110467,0.0457 -0.07766,0.07963 0.08366,0.08649 0.145977,0.0062 0.227766,-0.02762 0.181752,-0.07519 z m -8.370573,-2.204128 c 0.112558,0 0.113273,-0.04298 0.0026,-0.157386 -0.18212,-0.188285 -0.775065,-0.0271 -0.652784,0.177453 0.04689,0.07844 0.177522,0.106013 0.29029,0.06127 0.112765,-0.04474 0.274711,-0.08134 0.359877,-0.08134 z m -6.13201,-1.861131 c 0,-0.07874 -0.06231,-0.143164 -0.138477,-0.143164 -0.07616,0 -0.138477,0.06442 -0.138477,0.143164 0,0.07874 0.06231,0.143164 0.138477,0.143164 0.07616,0 0.138477,-0.06442 0.138477,-0.143164 z m 25.165312,-0.802315 c -0.04602,-0.04757 -0.165452,-0.05266 -0.265414,-0.0113 -0.110468,0.0457 -0.07766,0.07962 0.08366,0.08649 0.145977,0.0062 0.227766,-0.02762 0.181751,-0.07519 z m -5.224622,-0.620875 c 0,-0.249494 -0.23429,-0.287063 -0.498889,-0.08 -0.248943,0.194813 -0.242743,0.205845 0.118077,0.21016 0.209446,0.0025 0.380812,-0.05607 0.380812,-0.130162 z m -8.346125,-1.38342 c -0.04602,-0.04757 -0.165452,-0.05266 -0.265414,-0.0113 -0.110468,0.0457 -0.07766,0.07962 0.08366,0.08649 0.145977,0.0062 0.227766,-0.02762 0.181751,-0.07519 z m 1.208603,-1.883774 c -0.323449,-0.0275 -0.732772,-0.190133 -0.969339,-0.385148 -0.703374,-0.443126 -0.409475,-1.336021 -0.409475,-2.081489 0,-1.733336 0.0024,-1.746033 0.388533,-2.089448 0.339788,-0.302165 0.525735,-0.345514 1.482112,-0.345514 1.847358,0 2.076312,0.274791 2.075431,2.490941 -5.53e-4,1.449032 -0.270782,2.168535 -0.860667,2.291778 -0.614441,0.128372 -1.153341,0.165911 -1.706595,0.11888 z m 1.419468,-0.517536 c -0.07095,-0.220056 -1.512586,-0.211358 -1.583813,0.0095 -0.03546,0.10999 0.156575,0.186025 0.542369,0.214746 0.756411,0.05631 1.107536,-0.01931 1.041444,-0.2243 z"
           id="path888"
           sodipodi:nodetypes="ssssssssssssssssssscsssscssssssssssssscssssssssssssssssssssscssscccscsscsscc" />
        <path
           style="fill:#4d4d4d;stroke-width:0.140801"
           d="m 19.267623,21.229655 c 0,-0.698527 0.570292,-2.606097 1.037155,-3.469184 0.266222,-0.492161 0.764918,-1.251315 1.108212,-1.68701 0.61953,-0.786278 0.783404,-1.238209 0.451077,-1.243981 -0.0952,-0.0017 -1.41939,0.103822 -2.942637,0.23439 -2.092189,0.179337 -2.871142,0.299487 -3.184971,0.491269 -0.455452,0.278329 -0.752977,0.317289 -2.250251,0.294665 -0.967937,-0.01463 -1.003959,-0.0277 -1.003959,-0.364438 0,-0.300256 0.07287,-0.355503 0.519289,-0.393701 0.447017,-0.03825 0.525251,-0.09777 0.562128,-0.427657 0.0906,-0.810443 0.630784,-0.791967 0.740135,0.02531 0.04118,0.307745 0.128545,0.363988 0.623336,0.401272 0.32347,0.02438 0.808563,-0.0612 1.107816,-0.195421 0.292803,-0.13133 1.124357,-0.481515 1.8479,-0.778189 2.772188,-1.136679 3.184965,-1.319439 3.184771,-1.410083 -4.15e-4,-0.166514 -4.418705,-2.136081 -4.465602,-1.99063 -0.05116,0.15868 -2.109472,0.280785 -2.581582,0.153147 -0.215068,-0.05814 -0.293941,-0.17332 -0.264544,-0.386302 0.03261,-0.236264 0.164237,-0.319307 0.594452,-0.375039 0.413477,-0.05356 0.565002,-0.1436553 0.601969,-0.3579099 0.02717,-0.1574803 0.103026,-0.3448 0.168568,-0.416266 0.165218,-0.1801519 0.546336,0.1723939 0.546336,0.5053777 0,0.2034912 0.101389,0.2687982 0.41731,0.2687982 0.22952,0 0.525514,0.06509 0.657766,0.144641 0.132251,0.07955 1.330962,0.371187 2.663803,0.648076 1.332841,0.276889 2.749415,0.578624 3.147944,0.670522 0.673143,0.155224 0.766554,0.142244 1.315531,-0.182793 0.518529,-0.30701 0.760609,-0.349881 1.975706,-0.349881 1.215097,0 1.457177,0.04287 1.975705,0.349881 0.532781,0.315448 0.655433,0.335081 1.246293,0.199496 0.360448,-0.08271 1.777022,-0.388816 3.147944,-0.68023 1.370923,-0.291414 2.617216,-0.587884 2.76954,-0.658822 0.152325,-0.07094 0.432741,-0.147765 0.623147,-0.170726 0.237916,-0.02869 0.360032,-0.1424936 0.390443,-0.3638648 0.02434,-0.1771654 0.109499,-0.3221189 0.189247,-0.3221189 0.07975,0 0.112421,-0.1287834 0.07261,-0.2861852 -0.08678,-0.3430717 0.0481,-0.4594322 0.323654,-0.2792163 0.138002,0.090256 0.14679,0.1322131 0.02801,0.1337175 -0.0952,0.00121 -0.173096,0.098828 -0.173096,0.2169382 0,0.1181102 0.05798,0.2147458 0.128846,0.2147458 0.07086,0 0.148759,0.1449535 0.173096,0.3221189 0.03541,0.2577589 0.154923,0.3364208 0.598158,0.3937008 0.43455,0.05616 0.553908,0.132127 0.553908,0.352552 0,0.438004 -0.721188,0.581548 -2.026587,0.403368 l -1.105067,-0.150836 -1.549906,0.714121 c -0.852447,0.392766 -1.785391,0.81473 -2.073207,0.937697 -0.287815,0.122967 -0.504625,0.281499 -0.4818,0.352294 0.02283,0.07079 0.912616,0.482975 1.97731,0.915956 1.064695,0.432982 2.286332,0.944368 2.714749,1.136412 0.428416,0.192046 1.035984,0.349173 1.350151,0.349173 0.509129,0 0.571211,-0.03699 0.571211,-0.34038 0,-0.745115 0.774253,-0.865808 0.855494,-0.133358 0.03898,0.35142 0.11012,0.407762 0.563895,0.446589 0.44642,0.0382 0.519289,0.09344 0.519289,0.393701 0,0.336797 -0.03585,0.349786 -1.003958,0.363773 -1.575622,0.02276 -1.955397,-0.0233 -2.221277,-0.269401 -0.326078,-0.301826 -6.12248,-0.875565 -6.360425,-0.629567 -0.109539,0.113248 0.02048,0.36598 0.470293,0.914191 1.273737,1.552353 2.025447,3.218741 2.272281,5.037185 0.107217,0.789876 0.161558,0.79075 -0.99921,-0.01607 -0.658817,-0.457928 -0.717439,-0.54629 -0.802565,-1.209722 -0.24861,-1.937541 -1.424049,-3.605196 -2.849595,-4.042867 -0.926052,-0.284316 -1.232171,-0.286879 -1.334505,-0.01117 -0.108539,0.292419 0.194064,0.642293 0.556082,0.64295 0.39418,7.16e-4 1.127284,0.475794 1.401239,0.908053 0.275997,0.435481 0.439825,1.382034 0.239201,1.382034 -0.07943,0 -0.185324,-0.25028 -0.235314,-0.556179 -0.174661,-1.068802 -1.008579,-1.593213 -2.52545,-1.588135 -1.243615,0.0042 -2.050469,0.371849 -2.32915,1.0614 -0.111377,0.275584 -0.202503,0.631979 -0.202503,0.791988 0,0.16001 -0.06232,0.290926 -0.138477,0.290926 -0.216669,0 -0.157368,-0.587392 0.123952,-1.227753 0.260511,-0.593 0.926777,-1.062869 1.507124,-1.062869 0.343934,0 0.641167,-0.356806 0.535156,-0.642415 -0.101925,-0.274603 -0.408431,-0.273148 -1.318488,0.0063 -1.40262,0.430632 -2.425539,1.781587 -2.79529,3.6917 l -0.217352,1.122829 -0.856229,0.562821 c -0.839019,0.551506 -0.856229,0.556016 -0.856229,0.224338 z m 1.21548,-0.750311 c 0.169272,-0.122576 0.307767,-0.368578 0.307767,-0.546671 0,-0.576688 0.394047,-1.715987 0.885087,-2.559027 0.263713,-0.452756 0.448771,-0.823193 0.411238,-0.823193 -0.474551,0 -1.499049,1.408636 -1.941934,2.670071 -0.496232,1.413377 -0.395242,1.789672 0.337842,1.25882 z m 11.385928,0.02087 c 0,-0.90334 -1.293956,-3.449875 -1.932483,-3.803171 -0.435643,-0.24104 -0.437585,-0.177865 -0.01639,0.533437 0.410675,0.693539 0.979536,2.264063 0.979536,2.704325 0,0.333919 0.403231,0.7674 0.713847,0.7674 0.14052,0 0.255492,-0.0909 0.255492,-0.201991 z M 11.99758,13.830339 c -0.334895,-0.0881 -0.254358,-0.112146 0.415431,-0.124033 0.582805,-0.01034 1.645826,-0.02342 1.500124,0.07392 -0.234817,0.156887 -1.319183,0.207 -1.915555,0.05011 z m 1.995209,-0.05864 c -0.133093,-0.11831 0.851069,-0.08077 1.385938,-0.08233 0.412546,-0.0012 0.724119,0.02147 0.692385,0.0504 -0.160098,0.145919 -1.840317,0.243502 -2.003154,0.09875 z m 21.892075,0.05864 c -0.421798,-0.09179 -0.376892,-0.107632 0.346192,-0.122125 0.582253,-0.01167 1.553814,-0.0085 1.408251,0.08872 -0.228556,0.152703 -1.052729,0.186112 -1.754443,0.03341 z m 1.951027,-0.02736 c -0.164851,-0.05495 0.857233,-0.112035 1.43012,-0.113568 0.450627,-0.0012 0.793357,0.02105 0.761624,0.04947 -0.157781,0.141265 -1.785251,0.199606 -1.991292,0.130921 z M 12.828442,8.9679553 c -0.174819,-0.074389 0.113815,-0.1102753 0.78267,-0.097311 0.582793,0.011297 1.030897,0.068857 0.995786,0.127912 -0.0846,0.1422942 -1.426399,0.1192062 -1.778456,-0.030601 z m 2.301267,0.00529 c -0.139115,-0.088888 -0.131061,-0.1324538 0.0368,-0.199047 0.11819,-0.046889 0.249061,-0.028094 0.290823,0.041766 0.109177,0.1826301 -0.117577,0.2914878 -0.32762,0.1572805 z m 0.763062,0.019357 c -0.03726,-0.062331 0.361614,-0.1164351 0.886391,-0.1202307 0.524776,-0.0038 0.921797,0.047203 0.882266,0.1133298 -0.09123,0.1526078 -1.677852,0.1587987 -1.768657,0.0069 z m 18.136362,-0.0069 c -0.03953,-0.066127 0.35749,-0.1171253 0.882267,-0.1133298 0.524776,0.0038 0.923652,0.057899 0.886391,0.1202307 -0.0908,0.1518978 -1.677428,0.1457069 -1.768658,-0.0069 z m 3.054319,0.012858 c -0.03523,-0.059055 0.412874,-0.1151382 0.995785,-0.124629 0.680631,-0.011082 0.93597,0.02223 0.713644,0.093102 -0.457914,0.1459726 -1.628283,0.1675575 -1.709429,0.031527 z"
           id="path878"
           sodipodi:nodetypes="ssscsssssssssscssssssssssssssssssssssssssssscssssssssssssssssssssssscsssssscscsssssssssssssssssssssscssssssssssssssssssssssssssssssssss" />
      </g>
      <g
         id="g909"
         transform="matrix(1.491509,0,0,1.491509,-14.689898,-4.5090212)">
        <path
           style="fill:#29b140;stroke-width:0.140801;fill-opacity:1"
           d="m 23.906603,32.060611 c -2.690553,-0.335539 -6.602468,-1.320693 -8.170144,-2.057522 -0.152325,-0.07159 -0.775471,-0.361589 -1.38477,-0.644434 -0.807395,-0.374801 -1.051487,-0.546578 -0.900101,-0.633436 0.281253,-0.161367 3.024935,-0.959003 4.223549,-1.227858 4.479186,-1.004706 9.662955,-1.133805 13.951359,-0.347453 2.355607,0.431941 2.735121,0.477188 2.735121,0.326087 0,-0.180146 -2.797113,-1.116841 -4.292788,-1.437566 -1.456106,-0.312239 -6.707892,-0.349656 -8.654813,-0.06166 -2.052002,0.303539 -5.681121,1.10609 -7.893189,1.745518 -1.142435,0.330236 -2.201785,0.630634 -2.354109,0.66755 -0.152325,0.03692 -0.401584,0.122733 -0.553908,0.190702 -0.152325,0.06797 -1.2428314,0.458498 -2.4233479,0.867842 -1.1805165,0.409344 -2.2398657,0.777427 -2.3541092,0.817961 -0.3873457,0.137434 0.4725662,-0.719756 1.5812988,-1.576292 3.0663363,-2.368854 6.7024493,-3.924406 11.4355403,-4.892194 4.571202,-0.934688 11.177595,-0.826271 15.578663,0.255656 1.614182,0.39682 2.021248,0.520143 3.450554,1.045369 2.99358,1.100046 5.602587,2.647408 7.316438,4.339268 l 0.865077,0.853979 -0.969339,-0.375999 c -3.1468,-1.220615 -7.698323,-2.695533 -7.998769,-2.591996 -0.08555,0.02948 0.121316,0.167711 0.459691,0.307177 1.120615,0.46188 3.315529,1.583843 3.315529,1.694782 0,0.226021 -3.682382,0.0013 -7.477758,-0.45647 -3.456503,-0.416837 -4.217642,-0.465861 -6.026056,-0.388131 -1.697441,0.07296 -3.49836,0.317149 -3.363936,0.456123 0.02505,0.0259 1.447013,0.119556 3.159907,0.208119 3.921354,0.202745 7.444549,0.771959 7.938422,1.282548 0.264198,0.273141 -3.504793,1.265661 -5.997492,1.579367 -1.094764,0.137777 -4.257934,0.170017 -5.19652,0.05297 z"
           id="path899"
           sodipodi:nodetypes="ssssssssssssssssssscsssscsssssss" />
        <path
           style="fill:#4d4d4d;stroke-width:0.140801"
           d="m 19.267623,21.229655 c 0,-0.698527 0.570292,-2.606097 1.037155,-3.469184 0.266222,-0.492161 0.764918,-1.251315 1.108212,-1.68701 0.61953,-0.786278 0.783404,-1.238209 0.451077,-1.243981 -0.0952,-0.0017 -1.41939,0.103822 -2.942637,0.23439 -2.092189,0.179337 -2.871142,0.299487 -3.184971,0.491269 -0.455452,0.278329 -0.752977,0.317289 -2.250251,0.294665 -0.967937,-0.01463 -1.003959,-0.0277 -1.003959,-0.364438 0,-0.300256 0.07287,-0.355503 0.519289,-0.393701 0.447017,-0.03825 0.52525,-0.09777 0.562128,-0.427657 0.04412,-0.394631 0.19483,-1.170448 0.350494,-1.175478 0.16402,-0.0053 0.333536,0.781469 0.389641,1.200788 0.04118,0.307746 0.128545,0.363988 0.623336,0.401272 0.32347,0.02438 0.808563,-0.0612 1.107816,-0.195421 0.292803,-0.13133 1.124357,-0.481515 1.8479,-0.778189 2.772188,-1.136679 3.184965,-1.319439 3.184771,-1.410083 -4.15e-4,-0.166514 -4.418705,-2.136081 -4.465602,-1.99063 -0.05116,0.15868 -2.109472,0.280785 -2.581582,0.153147 -0.215068,-0.05814 -0.293941,-0.17332 -0.264544,-0.386302 0.03261,-0.236264 0.164237,-0.319307 0.594452,-0.375039 0.413477,-0.05356 0.565002,-0.1436553 0.601969,-0.3579099 0.02717,-0.1574803 0.153263,-0.7466963 0.218805,-0.8181623 0.165218,-0.1801519 0.496099,0.5742902 0.496099,0.907274 0,0.2034912 0.101389,0.2687982 0.41731,0.2687982 0.22952,0 0.525514,0.06509 0.657766,0.144641 0.132251,0.07955 1.330962,0.371187 2.663803,0.648076 1.332841,0.276889 2.749415,0.578624 3.147944,0.670522 0.673143,0.155224 0.766554,0.142244 1.315531,-0.182793 0.518529,-0.30701 0.760609,-0.349881 1.975706,-0.349881 1.215097,0 1.457177,0.04287 1.975705,0.349881 0.532781,0.315448 0.655433,0.335081 1.246293,0.199496 0.360448,-0.08271 1.777022,-0.388816 3.147944,-0.68023 1.370923,-0.291414 2.617216,-0.587884 2.76954,-0.658822 0.152325,-0.07094 0.432741,-0.147765 0.623147,-0.170726 0.237916,-0.02869 0.360032,-0.1424936 0.390443,-0.3638648 0.02434,-0.1771654 0.109499,-0.3221189 0.189247,-0.3221189 0.07975,0 0.112421,-0.1287834 0.07261,-0.2861852 -0.08678,-0.3430717 0.0481,-0.4594322 0.323654,-0.2792163 0.138002,0.090256 0.14679,0.1322131 0.02801,0.1337175 -0.0952,0.00121 -0.173096,0.098828 -0.173096,0.2169382 0,0.1181102 0.05798,0.2147458 0.128846,0.2147458 0.07086,0 0.148759,0.1449535 0.173096,0.3221189 0.03541,0.2577589 0.154923,0.3364208 0.598158,0.3937008 0.43455,0.05616 0.553908,0.132127 0.553908,0.352552 0,0.438004 -0.721188,0.581548 -2.026587,0.403368 l -1.105067,-0.150836 -1.549906,0.714121 c -0.852447,0.392766 -1.785391,0.81473 -2.073207,0.937697 -0.287815,0.122967 -0.504625,0.281499 -0.4818,0.352294 0.02283,0.07079 0.912616,0.482975 1.97731,0.915956 1.064695,0.432982 2.286332,0.944368 2.714749,1.136412 0.428416,0.192046 1.035984,0.349173 1.350151,0.349173 0.509129,0 0.571211,-0.03699 0.571211,-0.34038 0,-0.431261 0.259368,-1.205953 0.493619,-1.174516 0.170479,0.02288 0.327655,0.732638 0.361875,1.041158 0.03898,0.35142 0.11012,0.407762 0.563895,0.446589 0.44642,0.0382 0.519289,0.09344 0.519289,0.393701 0,0.336797 -0.03585,0.349786 -1.003958,0.363773 -1.575622,0.02276 -1.955397,-0.0233 -2.221277,-0.269401 -0.326078,-0.301826 -6.12248,-0.875565 -6.360425,-0.629567 -0.109539,0.113248 0.02048,0.36598 0.470293,0.914191 1.273737,1.552353 2.025447,3.218741 2.272281,5.037185 0.107217,0.789876 0.161558,0.79075 -0.99921,-0.01607 -0.658817,-0.457928 -0.717439,-0.54629 -0.802565,-1.209722 -0.24861,-1.937541 -1.424049,-3.605196 -2.849595,-4.042867 -0.926052,-0.284316 -1.232171,-0.286879 -1.334505,-0.01117 -0.108539,0.292419 0.194064,0.642293 0.556082,0.64295 0.39418,7.16e-4 1.127284,0.475794 1.401239,0.908053 0.275997,0.435481 0.439825,1.382034 0.239201,1.382034 -0.07943,0 -0.185324,-0.25028 -0.235314,-0.556179 -0.174661,-1.068802 -1.008579,-1.593213 -2.52545,-1.588135 -1.243615,0.0042 -2.050469,0.371849 -2.32915,1.0614 -0.111377,0.275584 -0.202503,0.631979 -0.202503,0.791988 0,0.16001 -0.06232,0.290926 -0.138477,0.290926 -0.216669,0 -0.157368,-0.587392 0.123952,-1.227753 0.260511,-0.593 0.926777,-1.062869 1.507124,-1.062869 0.343934,0 0.641167,-0.356806 0.535156,-0.642415 -0.101925,-0.274603 -0.408431,-0.273148 -1.318488,0.0063 -1.40262,0.430632 -2.425539,1.781587 -2.79529,3.6917 l -0.217352,1.122829 -0.856229,0.562821 c -0.839019,0.551506 -0.856229,0.556016 -0.856229,0.224338 z m 1.21548,-0.750311 c 0.169272,-0.122576 0.307767,-0.368578 0.307767,-0.546671 0,-0.576688 0.394047,-1.715987 0.885087,-2.559027 0.263713,-0.452756 0.448771,-0.823193 0.411238,-0.823193 -0.474551,0 -1.499049,1.408636 -1.941934,2.670071 -0.496232,1.413377 -0.395242,1.789672 0.337842,1.25882 z m 11.385928,0.02087 c 0,-0.90334 -1.293956,-3.449875 -1.932483,-3.803171 -0.435643,-0.24104 -0.437585,-0.177865 -0.01639,0.533437 0.410675,0.693539 0.979536,2.264063 0.979536,2.704325 0,0.333919 0.403231,0.7674 0.713847,0.7674 0.14052,0 0.255492,-0.0909 0.255492,-0.201991 z M 11.99758,13.830339 c -0.334895,-0.0881 -0.254358,-0.112146 0.415431,-0.124033 0.582805,-0.01034 1.645826,-0.02342 1.500124,0.07392 -0.234817,0.156887 -1.319183,0.207 -1.915555,0.05011 z m 1.995209,-0.05864 c -0.133093,-0.11831 0.851069,-0.08077 1.385938,-0.08233 0.412546,-0.0012 0.724119,0.02147 0.692385,0.0504 -0.160098,0.145919 -1.840317,0.243502 -2.003154,0.09875 z m 21.892075,0.05864 c -0.421798,-0.09179 -0.376892,-0.107632 0.346192,-0.122125 0.582253,-0.01167 1.553814,-0.0085 1.408251,0.08872 -0.228556,0.152703 -1.052729,0.186112 -1.754443,0.03341 z m 1.951027,-0.02736 c -0.164851,-0.05495 0.857233,-0.112035 1.43012,-0.113568 0.450627,-0.0012 0.793357,0.02105 0.761624,0.04947 -0.157781,0.141265 -1.785251,0.199606 -1.991292,0.130921 z M 12.828442,8.9679553 c -0.174819,-0.074389 0.113815,-0.1102753 0.78267,-0.097311 0.582793,0.011297 1.65886,0.081416 1.623749,0.1404713 -0.0846,0.1422942 -2.054362,0.1066469 -2.406419,-0.04316 z m 2.301267,0.00529 c -0.139115,-0.088888 -0.131061,-0.1324538 0.0368,-0.199047 0.11819,-0.046889 0.249061,-0.028094 0.290823,0.041766 0.109177,0.1826301 -0.117577,0.2914878 -0.32762,0.1572805 z m 0.185336,0.019357 c -0.03726,-0.062331 0.93934,-0.1164351 1.464117,-0.1202307 0.524776,-0.0038 0.921797,0.047203 0.882266,0.1133298 -0.09123,0.1526078 -2.255578,0.1587987 -2.346383,0.0069 z m 18.714088,-0.0069 c -0.03953,-0.066127 0.35749,-0.1171253 0.882267,-0.1133298 0.524776,0.0038 1.501378,0.057899 1.464117,0.1202307 -0.0908,0.1518978 -2.255154,0.1457069 -2.346384,-0.0069 z m 2.464034,-0.012261 c -0.03523,-0.059055 1.003159,-0.09002 1.58607,-0.09951 0.680631,-0.011082 0.93597,0.02223 0.713644,0.093102 -0.457914,0.1459726 -2.218568,0.142439 -2.299714,0.00641 z"
           id="path907"
           sodipodi:nodetypes="ssscssssssssssscssssssssssssssssssssssssssssscsssssssssssssssssssssssscsssssscscsssssssssssssssssssssscsssssssssssssssssssssssssssssssssss" />
        <text
           xml:space="preserve"
           id="text857"
           style="font-style:normal;font-weight:normal;font-size:5.62655px;line-height:1.25;font-family:sans-serif;letter-spacing:-0.514829px;white-space:pre;shape-inside:url(#rect859);fill:#2a7fff;fill-opacity:1;stroke:none;"
           transform="translate(-30.343171,0.70331852)"><tspan
             x="40.904297"
             y="37.384536"><tspan
               style="font-style:normal;font-variant:normal;font-weight:bold;font-stretch:normal;font-size:6.75186px;font-family:Marlett;-inkscape-font-specification:'Marlett Bold';letter-spacing:-0.147697px;word-spacing:0px;fill:#2a7fff">DRONES</tspan></tspan></text>
      </g>
      <text
         xml:space="preserve"
         id="text925"
         style="font-style:normal;font-weight:normal;font-size:8.39205px;line-height:1.25;font-family:sans-serif;white-space:pre;shape-inside:url(#rect927);fill:#e6e6e6;fill-opacity:1;stroke:none;"
         transform="translate(-8.4669762,-15.210586)"><tspan
           x="11.103516"
           y="83.13679"><tspan
             style="font-style:normal;font-variant:normal;font-weight:normal;font-stretch:normal;font-size:6.15417px;font-family:Calibri;-inkscape-font-specification:Calibri;fill:#e6e6e6">de Córdoba S.A.S</tspan></tspan></text>
      <text
         xml:space="preserve"
         id="text863"
         style="font-style:normal;font-variant:normal;font-weight:normal;font-stretch:normal;font-size:8.39205px;line-height:1.25;font-family:Calibri;-inkscape-font-specification:Calibri;letter-spacing:0.839205px;white-space:pre;shape-inside:url(#rect865);fill:#cccccc;fill-opacity:1;stroke:none;"
         transform="translate(-57.845183,5.6688919)"><tspan
           x="52.314453"
           y="56.497756"><tspan
             style="font-style:normal;font-variant:normal;font-weight:normal;font-stretch:normal;font-size:11.1894px;font-family:Calibri;-inkscape-font-specification:Calibri;letter-spacing:0.839205px;fill:#e6e6e6">AGRÍCOLAS</tspan></tspan></text>
    </g>
    <g
       id="g937"
       transform="translate(63.877976,82.776786)" />
    <g
       id="g931"
       transform="translate(55.184524,114.14881)" />
  </g>
</svg>
