<?xml version="1.0" encoding="UTF-8" standalone="no"?>
<svg
   xmlns:dc="http://purl.org/dc/elements/1.1/"
   xmlns:cc="http://creativecommons.org/ns#"
   xmlns:rdf="http://www.w3.org/1999/02/22-rdf-syntax-ns#"
   xmlns:svg="http://www.w3.org/2000/svg"
   xmlns="http://www.w3.org/2000/svg"
   xmlns:sodipodi="http://sodipodi.sourceforge.net/DTD/sodipodi-0.dtd"
   xmlns:inkscape="http://www.inkscape.org/namespaces/inkscape"
   version="1.1"
   id="Layer_1"
   x="0px"
   y="0px"
   viewBox="0 0 473.931 473.931"
   style="enable-background:new 0 0 473.931 473.931;"
   xml:space="preserve"
   sodipodi:docname="yt.svg"
   inkscape:version="1.0.1 (3bc2e813f5, 2020-09-07)"><metadata
   id="metadata45"><rdf:RDF><cc:Work
       rdf:about=""><dc:format>image/svg+xml</dc:format><dc:type
         rdf:resource="http://purl.org/dc/dcmitype/StillImage" /></cc:Work></rdf:RDF></metadata><defs
   id="defs43" /><sodipodi:namedview
   pagecolor="#ffffff"
   bordercolor="#666666"
   borderopacity="1"
   objecttolerance="10"
   gridtolerance="10"
   guidetolerance="10"
   inkscape:pageopacity="0"
   inkscape:pageshadow="2"
   inkscape:window-width="1366"
   inkscape:window-height="715"
   id="namedview41"
   showgrid="false"
   inkscape:zoom="1.1900467"
   inkscape:cx="379.67701"
   inkscape:cy="300.131"
   inkscape:window-x="-8"
   inkscape:window-y="-8"
   inkscape:window-maximized="1"
   inkscape:current-layer="Layer_1"
   inkscape:document-rotation="0" />
<rect
   style="opacity:1;fill:#ff2a2a;fill-opacity:1;stroke:none;stroke-width:1.1711"
   id="rect846"
   width="475.6116"
   height="473.931"
   x="7.2434779e-07"
   y="3.5202097e-06" />


<path
   style="fill:#FFFFFF;"
   d="M321.724,291.91h-15.289l0.075-8.875c0-3.948,3.237-7.169,7.199-7.169h0.98  c3.963,0,7.214,3.222,7.214,7.169L321.724,291.91z M264.404,272.89c-3.865,0-7.038,2.608-7.038,5.796v43.161  c0,3.188,3.173,5.781,7.038,5.781c3.895,0,7.068-2.593,7.068-5.781v-43.165C271.472,275.498,268.299,272.89,264.404,272.89z   M357.473,248.752v82.102c0,19.697-17.077,35.809-37.96,35.809H163.444c-20.887,0-37.96-16.116-37.96-35.809v-82.102  c0-19.697,17.074-35.816,37.96-35.816h156.073C340.395,212.936,357.473,229.059,357.473,248.752z M173.85,339.771l-0.007-86.487  l19.345,0.007v-12.819l-51.573-0.079v12.595l16.101,0.049v86.73h16.134V339.771z M231.847,266.17h-16.131v46.181  c0,6.683,0.4,10.024-0.022,11.199c-1.317,3.581-7.214,7.383-9.508,0.389c-0.389-1.227-0.045-4.924-0.052-11.274l-0.075-46.499  h-16.041l0.06,45.765c0.007,7.016-0.161,12.247,0.052,14.627c0.393,4.198,0.247,9.096,4.15,11.884  c7.252,5.235,21.163-0.778,24.643-8.251l-0.03,9.534l12.95,0.019V266.17H231.847z M283.45,319.052l-0.03-38.439  c-0.015-14.653-10.971-23.427-25.856-11.573l0.067-28.58l-16.116,0.026l-0.079,98.637l13.25-0.195l1.205-6.148  C272.83,348.332,283.479,337.683,283.45,319.052z M333.941,313.96l-12.101,0.064c0,0.483-0.022,1.033-0.03,1.639v6.75  c0,3.611-2.982,6.552-6.608,6.552h-2.369c-3.633,0-6.615-2.941-6.615-6.552v-0.748v-7.431v-9.579h27.697V294.23  c0-7.614-0.198-15.229-0.827-19.584c-1.979-13.781-21.317-15.966-31.09-8.913c-3.068,2.204-5.407,5.152-6.776,9.119  c-1.373,3.963-2.054,9.369-2.054,16.247v22.918C293.178,352.115,339.452,346.73,333.941,313.96z M271.895,189.524  c0.827,2.028,2.118,3.663,3.88,4.905c1.725,1.212,3.948,1.83,6.6,1.83c2.324,0,4.385-0.629,6.174-1.927  c1.792-1.291,3.304-3.214,4.531-5.788l-0.307,6.331h17.979v-76.467h-14.155v59.513c0,3.218-2.66,5.856-5.905,5.856  c-3.222,0-5.89-2.638-5.89-5.856v-59.513h-14.769v51.573c0,6.571,0.116,10.952,0.314,13.175  C270.559,185.363,271.064,187.477,271.895,189.524z M217.408,146.337c0-7.341,0.614-13.07,1.826-17.201  c1.22-4.12,3.427-7.431,6.608-9.923c3.18-2.511,7.252-3.764,12.191-3.764c4.157,0,7.723,0.819,10.705,2.417  c2.982,1.609,5.298,3.693,6.892,6.271c1.639,2.586,2.739,5.246,3.334,7.966c0.606,2.754,0.898,6.919,0.898,12.52v19.341  c0,7.094-0.284,12.31-0.834,15.626c-0.543,3.323-1.717,6.402-3.536,9.287c-1.796,2.859-4.116,4.995-6.93,6.357  c-2.836,1.381-6.08,2.054-9.755,2.054c-4.093,0-7.551-0.565-10.391-1.751c-2.851-1.175-5.059-2.949-6.627-5.302  c-1.594-2.357-2.705-5.227-3.375-8.572c-0.681-3.349-1.003-8.374-1.003-15.079v-20.247H217.408z M231.484,176.716  c0,4.325,3.229,7.861,7.154,7.861s7.132-3.532,7.132-7.861v-40.71c0-4.325-3.207-7.861-7.132-7.861s-7.154,3.532-7.154,7.861  V176.716z M181.722,197.269h16.969l0.015-58.648l20.045-50.241h-18.555l-10.657,37.324l-10.81-37.421h-18.357l21.324,50.372  L181.722,197.269z"
   id="path8" />
<g
   id="g10">
</g>
<g
   id="g12">
</g>
<g
   id="g14">
</g>
<g
   id="g16">
</g>
<g
   id="g18">
</g>
<g
   id="g20">
</g>
<g
   id="g22">
</g>
<g
   id="g24">
</g>
<g
   id="g26">
</g>
<g
   id="g28">
</g>
<g
   id="g30">
</g>
<g
   id="g32">
</g>
<g
   id="g34">
</g>
<g
   id="g36">
</g>
<g
   id="g38">
</g>
</svg>
